<?xml version="1.0" encoding="UTF-8"?>
<svg width="60px" height="60px" viewBox="0 0 60 60" version="1.1" xmlns="http://www.w3.org/2000/svg" xmlns:xlink="http://www.w3.org/1999/xlink">
    <title>ico_engage@1x</title>
    <defs>
        <linearGradient x1="-5.54305695e-05%" y1="49.9998929%" x2="100.000089%" y2="49.9998929%" id="linearGradient-1">
            <stop stop-color="#FD8087" offset="0%"></stop>
            <stop stop-color="#FB2B3A" offset="52.13%"></stop>
            <stop stop-color="#D90D80" offset="100%"></stop>
        </linearGradient>
        <linearGradient x1="11.5857504%" y1="49.999854%" x2="121.475307%" y2="49.999854%" id="linearGradient-2">
            <stop stop-color="#FEF056" offset="0%"></stop>
            <stop stop-color="#F4D902" offset="52.13%"></stop>
            <stop stop-color="#FE9738" offset="100%"></stop>
        </linearGradient>
        <linearGradient x1="-843.397452%" y1="49.9838566%" x2="618.780914%" y2="49.9838566%" id="linearGradient-3">
            <stop stop-color="#FEF056" offset="0%"></stop>
            <stop stop-color="#F4D902" offset="52.13%"></stop>
            <stop stop-color="#FE9738" offset="100%"></stop>
        </linearGradient>
        <linearGradient x1="-109.961199%" y1="50.0000269%" x2="80.8636034%" y2="50.0000269%" id="linearGradient-4">
            <stop stop-color="#FEF056" offset="0%"></stop>
            <stop stop-color="#F4D902" offset="52.13%"></stop>
            <stop stop-color="#FE9738" offset="100%"></stop>
        </linearGradient>
        <linearGradient x1="0%" y1="50%" x2="100%" y2="50%" id="linearGradient-5">
            <stop stop-color="#FEF056" offset="0%"></stop>
            <stop stop-color="#F4D902" offset="52.13%"></stop>
            <stop stop-color="#FE9738" offset="100%"></stop>
        </linearGradient>
        <linearGradient x1="-78.9443063%" y1="50%" x2="81.6365876%" y2="50%" id="linearGradient-6">
            <stop stop-color="#FEF056" offset="0%"></stop>
            <stop stop-color="#F4D902" offset="52.13%"></stop>
            <stop stop-color="#FE9738" offset="100%"></stop>
        </linearGradient>
        <linearGradient x1="-92.9343678%" y1="50%" x2="354.668023%" y2="50%" id="linearGradient-7">
            <stop stop-color="#FEF056" offset="0%"></stop>
            <stop stop-color="#F4D902" offset="52.13%"></stop>
            <stop stop-color="#FE9738" offset="100%"></stop>
        </linearGradient>
        <linearGradient x1="-245.217502%" y1="50%" x2="202.384889%" y2="50%" id="linearGradient-8">
            <stop stop-color="#FEF056" offset="0%"></stop>
            <stop stop-color="#F4D902" offset="52.13%"></stop>
            <stop stop-color="#FE9738" offset="100%"></stop>
        </linearGradient>
        <linearGradient x1="-28.1156472%" y1="50%" x2="166.134505%" y2="50%" id="linearGradient-9">
            <stop stop-color="#FD8087" offset="0%"></stop>
            <stop stop-color="#FB2B3A" offset="52.13%"></stop>
            <stop stop-color="#D90D80" offset="100%"></stop>
        </linearGradient>
        <linearGradient x1="-154.702545%" y1="49.9998896%" x2="54.6341498%" y2="49.9998896%" id="linearGradient-10">
            <stop stop-color="#FD8087" offset="0%"></stop>
            <stop stop-color="#FB2B3A" offset="52.13%"></stop>
            <stop stop-color="#D90D80" offset="100%"></stop>
        </linearGradient>
        <linearGradient x1="-79.2366023%" y1="49.9997804%" x2="117.667588%" y2="49.9997804%" id="linearGradient-11">
            <stop stop-color="#FD8087" offset="0%"></stop>
            <stop stop-color="#FB2B3A" offset="52.13%"></stop>
            <stop stop-color="#D90D80" offset="100%"></stop>
        </linearGradient>
        <linearGradient x1="-5.92360827e-15%" y1="50%" x2="100%" y2="50%" id="linearGradient-12">
            <stop stop-color="#FD8087" offset="0%"></stop>
            <stop stop-color="#FB2B3A" offset="52.13%"></stop>
            <stop stop-color="#D90D80" offset="100%"></stop>
        </linearGradient>
        <linearGradient x1="-109.084868%" y1="50%" x2="94.4983247%" y2="50%" id="linearGradient-13">
            <stop stop-color="#FD8087" offset="0%"></stop>
            <stop stop-color="#FB2B3A" offset="52.13%"></stop>
            <stop stop-color="#D90D80" offset="100%"></stop>
        </linearGradient>
        <linearGradient x1="-176.948692%" y1="50%" x2="390.5186%" y2="50%" id="linearGradient-14">
            <stop stop-color="#FD8087" offset="0%"></stop>
            <stop stop-color="#FB2B3A" offset="52.13%"></stop>
            <stop stop-color="#D90D80" offset="100%"></stop>
        </linearGradient>
        <linearGradient x1="-329.230375%" y1="50%" x2="238.236917%" y2="50%" id="linearGradient-15">
            <stop stop-color="#FD8087" offset="0%"></stop>
            <stop stop-color="#FB2B3A" offset="52.13%"></stop>
            <stop stop-color="#D90D80" offset="100%"></stop>
        </linearGradient>
        <linearGradient x1="11.5861107%" y1="49.9997939%" x2="121.474908%" y2="49.9997939%" id="linearGradient-16">
            <stop stop-color="#814AA0" offset="0%"></stop>
            <stop stop-color="#192A7D" offset="100%"></stop>
        </linearGradient>
        <linearGradient x1="-843.408788%" y1="49.9727682%" x2="618.785619%" y2="49.9727682%" id="linearGradient-17">
            <stop stop-color="#814AA0" offset="0%"></stop>
            <stop stop-color="#192A7D" offset="100%"></stop>
        </linearGradient>
        <linearGradient x1="-109.960217%" y1="50.0000012%" x2="80.8639565%" y2="50.0000012%" id="linearGradient-18">
            <stop stop-color="#814AA0" offset="0%"></stop>
            <stop stop-color="#192A7D" offset="100%"></stop>
        </linearGradient>
        <linearGradient x1="5.09546875e-15%" y1="50%" x2="100%" y2="50%" id="linearGradient-19">
            <stop stop-color="#814AA0" offset="0%"></stop>
            <stop stop-color="#192A7D" offset="100%"></stop>
        </linearGradient>
        <linearGradient x1="-78.941992%" y1="50%" x2="81.63444%" y2="50%" id="linearGradient-20">
            <stop stop-color="#814AA0" offset="0%"></stop>
            <stop stop-color="#192A7D" offset="100%"></stop>
        </linearGradient>
        <linearGradient x1="-92.9322034%" y1="50%" x2="354.667797%" y2="50%" id="linearGradient-21">
            <stop stop-color="#814AA0" offset="0%"></stop>
            <stop stop-color="#192A7D" offset="100%"></stop>
        </linearGradient>
        <linearGradient x1="-245.213559%" y1="50%" x2="202.386441%" y2="50%" id="linearGradient-22">
            <stop stop-color="#814AA0" offset="0%"></stop>
            <stop stop-color="#192A7D" offset="100%"></stop>
        </linearGradient>
    </defs>
    <g id="Website-images" stroke="none" stroke-width="1" fill="none" fill-rule="evenodd">
        <g id="Pixelbook" transform="translate(-657.000000, -2569.000000)">
            <g id="ico_engage" transform="translate(657.000000, 2569.000000)">
                <rect id="Border" x="0" y="0" width="60" height="60"></rect>
                <g id="3594080" transform="translate(30.000000, 29.500000) scale(-1, -1) translate(-30.000000, -29.500000) translate(2.000000, 2.000000)" fill-rule="nonzero">
                    <path d="M54.9920684,4.21227718 C54.993039,4.20267913 54.9941175,4.19308109 54.9950881,4.1833752 C55.0764019,3.4020511 54.1289986,2.95115862 53.5723115,3.50665902 L51.9112013,5.16399356 C51.7528873,5.32187602 51.5453968,5.4009251 51.3379063,5.4009251 C51.1367786,5.4009251 50.9357587,5.32683681 50.7794937,5.17844455 C50.4481991,4.86397373 50.4657776,4.3183949 50.7891996,3.995728 L53.4900271,1.30094174 C53.9605473,0.83139238 53.6460763,0.0129702194 52.9806832,0.00110746572 C52.9756146,0.000999622505 52.9705459,0.00089177929 52.9653694,0.00089177929 C49.0541089,-0.04235335 45.2904858,1.48880462 42.5246289,4.24840466 L31.1357301,15.6118443 C30.876367,15.870668 30.6105333,16.1216191 30.338876,16.3646977 C29.463512,17.1475316 28.2626769,15.8701288 29.093933,15.0408144 L31.5850053,12.555244 C31.8989371,12.2420673 31.9307509,11.7276552 31.6264171,11.405204 C31.3115147,11.0716449 30.7852394,11.0657135 30.4625723,11.3874098 L20.9016173,20.927005 C20.7716661,21.0567404 20.6053718,21.1451718 20.4243029,21.1769855 C20.4147048,21.178711 20.4051068,21.1803287 20.3955087,21.1820542 C19.5238114,21.3338974 18.9702518,20.2825339 19.5959586,19.6582295 L23.6072977,15.6558443 C23.9212295,15.3426676 23.9530433,14.8282555 23.6487095,14.5058042 C23.3338071,14.1722452 22.8075318,14.1663138 22.4848647,14.4880101 L17.2435728,19.7176511 C16.1721497,20.7867009 14.8146183,21.5276917 13.3320966,21.8406527 C5.53437946,23.4870951 -0.284521093,30.5713159 0.0107538425,38.8458022 C0.319401347,47.4964458 7.26235254,54.5359116 15.9264827,54.9778531 C23.7444744,55.3766573 30.5476606,50.3470655 32.8027717,43.31558 C33.1933801,42.0974909 33.8513321,40.9816371 34.7576471,40.0773718 L39.3461635,35.4991037 C39.6600953,35.185927 39.6919091,34.6715149 39.3875753,34.3490637 C39.0726729,34.0155046 38.5463977,34.0095733 38.2237305,34.3312696 L35.7134622,36.8359282 C34.9450787,37.6025857 33.6335965,36.9985558 33.7227829,35.9179668 C33.7238613,35.905457 33.7248319,35.8929472 33.7259103,35.8805452 C33.7490966,35.6070548 33.8692341,35.3512507 34.0637834,35.1571329 L49.858512,19.3977882 C50.1724438,19.0846115 50.2042576,18.5701993 49.8999238,18.2477481 C49.5850214,17.9141891 49.0587462,17.9082577 48.736079,18.229954 L37.6565827,29.2844228 C36.9042678,30.0350116 35.6975014,29.110903 36.2239924,28.1884122 C37.1049642,26.6446366 38.1952599,25.2116159 39.4763304,23.9334581 L50.8652292,12.5700185 C51.0784353,12.3572439 51.2843082,12.1385378 51.4827399,11.9143318 C51.9839955,11.3478314 51.1678374,10.5789092 50.6322876,11.1132724 C50.4739737,11.2711548 50.2664832,11.3502039 50.0589927,11.3502039 C49.857865,11.3502039 49.6568451,11.2761156 49.5005801,11.1277234 C49.1692855,10.8132525 49.186864,10.2676737 49.510286,9.94500682 L54.7516857,4.71536578 C54.8873526,4.58002254 54.9716861,4.40262046 54.9920684,4.21227718 Z" id="Path" fill="url(#linearGradient-1)"></path>
                    <g id="Group" transform="translate(29.000000, 29.000000)">
                        <path d="M25.8837919,1.36134285 C25.8755263,0.613341472 25.2736586,0.00895548445 24.5287739,0.00065527935 C22.0712742,-0.0267572401 19.7065454,0.941527213 17.9688073,2.68653612 C16.4141093,4.24773917 14.2220884,4.95369346 12.0417046,4.67028514 C11.4799686,4.59722149 10.9045292,4.56817078 10.3188664,4.58662781 C4.5666468,4.76792177 -0.0350201307,9.57516029 0.000124005679,15.3542873 C0.0362164706,21.2134676 4.75925752,25.9562703 10.5939158,25.9927348 C16.3489631,26.0282419 21.136389,21.4074303 21.3170363,15.6311428 C21.3354165,15.0428112 21.3064868,14.4648548 21.2337276,13.9006593 C20.9515001,11.7111525 21.6545129,9.50996 23.209211,7.94886616 C24.9468403,6.20374804 25.9110902,3.82912488 25.8837919,1.36134285 L25.8837919,1.36134285 Z" id="Path" fill="url(#linearGradient-2)"></path>
                        <g transform="translate(9.135686, 0.000000)" id="Path">
                            <path d="M2.26412758,4.60868888 C1.90816209,4.58422512 1.54784627,4.57516042 1.18307137,4.58662781 C0.812749804,4.59831363 0.447213595,4.6294394 0.0873328105,4.67847613 C0.820906667,4.76562829 1.55437176,4.74007239 2.26412758,4.60868888 Z" fill="url(#linearGradient-3)"></path>
                            <path d="M15.3930876,0.00065527935 C14.6637553,-0.0074264993 13.9431237,0.0741557798 13.2441349,0.23568214 C13.6046682,0.480319764 13.8431749,0.892490475 13.8483953,1.36134285 C13.8756936,3.82912488 12.9114437,6.20374804 11.1737056,7.94875694 C9.61900758,9.50996 8.91599477,11.7110433 9.19822222,13.9005501 C9.27098144,14.4647456 9.29991111,15.0428112 9.28153098,15.6310336 C9.11697987,20.8932544 5.12892654,25.1959279 0.0692789542,25.8931451 C0.523779346,25.9555058 0.987306667,25.9895804 1.45822954,25.9926255 C7.21327686,26.0281326 12.0007027,21.4073211 12.1813501,15.6310336 C12.1997302,15.042702 12.1708005,14.4647456 12.0980413,13.9005501 C11.8158139,11.7110433 12.5188267,9.50985078 14.0735247,7.94875694 C15.8112627,6.20374804 16.7755127,3.82901567 16.7482144,1.36134285 C16.73984,0.613341472 16.1379723,0.00895548445 15.3930876,0.00065527935 Z" fill="url(#linearGradient-4)"></path>
                        </g>
                        <g transform="translate(2.501438, 7.098860)">
                            <ellipse id="Oval" fill="url(#linearGradient-5)" cx="8.15969046" cy="8.18815233" rx="8.0836685" ry="8.11749138"></ellipse>
                            <g transform="translate(2.283922, 0.000000)">
                                <path d="M5.87576889,0.0705517434 C5.38048418,0.0705517434 4.89651033,0.117731857 4.42591373,0.203355025 C8.19808209,0.889760144 11.0597271,4.20219726 11.0597271,8.18815233 C11.0597271,9.48626073 10.7546604,10.7119608 10.2150024,11.7998337 C9.94147556,10.5633216 8.80810667,9.65193719 7.47690667,9.73275498 C6.18333699,9.81127928 5.11881203,10.8548116 5.01233778,12.1517187 C4.95643608,12.8331 5.15752993,13.4658814 5.52883033,13.9633477 C6.11840837,14.7530685 5.70469229,15.8929269 4.74544523,16.108077 C4.63962353,16.1317763 4.53304052,16.1535097 4.42580497,16.1729496 C4.89640157,16.2585728 5.38048418,16.3057529 5.87566013,16.3057529 C10.340183,16.3057529 13.9593286,12.6714644 13.9593286,8.18826155 C13.9593286,3.70505866 10.3402918,0.0705517434 5.87576889,0.0705517434 L5.87576889,0.0705517434 Z" id="Path" fill="url(#linearGradient-6)"></path>
                                <ellipse id="Oval" fill="url(#linearGradient-7)" cx="1.78831059" cy="8.0103532" rx="1.71011346" ry="1.71726875"></ellipse>
                                <ellipse id="Oval" fill="url(#linearGradient-8)" cx="6.99673935" cy="4.5758157" rx="1.71011346" ry="1.71726875"></ellipse>
                            </g>
                        </g>
                    </g>
                    <g id="Group" transform="translate(2.000000, 0.000000)">
                        <ellipse id="Oval" fill="url(#linearGradient-9)" cx="12.761509" cy="40.9371471" rx="12.7138127" ry="12.9358922"></ellipse>
                        <path d="M51.5926353,3.50673529 L49.9601509,5.16406863 C49.804555,5.32195098 49.600627,5.401 49.3966989,5.401 C49.1990243,5.401 49.0014558,5.32680392 48.8478738,5.17851961 C48.5222672,4.86415686 48.5396498,4.31847059 48.857413,3.99591176 L51.5118696,1.30112745 C51.9744175,0.831578431 51.6652397,0.0131568627 51.0113767,0.00129411765 C51.0063951,0.00118627451 51.0014135,0.00118627451 50.9963259,0.00107843137 C49.4175793,-0.0167156863 47.8634227,0.231647059 46.3914097,0.721039216 C46.4026448,0.924 46.3372479,1.1345098 46.1730667,1.30123529 L43.5186101,3.99601961 C43.2008469,4.31857843 43.1835703,4.86426471 43.5090709,5.17862745 C43.6626529,5.32701961 43.8602214,5.40110784 44.057896,5.40110784 C44.2617181,5.40110784 44.4657521,5.32216667 44.621348,5.16417647 L46.2538324,3.50684314 C46.8012797,2.95101961 47.7326289,3.40245098 47.6520752,4.18517647 C47.6511213,4.19488235 47.6500613,4.20458824 47.6491074,4.21407843 C47.629287,4.40388235 47.5457655,4.5807451 47.4129579,4.71554902 L42.2615483,9.94518627 C41.9436792,10.2678529 41.9264025,10.8135392 42.2521151,11.1280098 C42.4056971,11.2762941 42.6032656,11.3503824 42.8008342,11.3503824 C43.0046563,11.3503824 43.2085843,11.2714412 43.3641802,11.113451 L43.6003297,11.113451 C44.3176817,11.113451 44.518854,11.5636961 44.0342598,12.1018333 C43.890959,12.260902 43.7439485,12.4170588 43.5931223,12.5700882 L29.7944843,26.5859216 C29.3184755,27.0693824 29.3037426,27.8494118 29.7609909,28.3512059 C30.0609475,28.680451 30.1539022,29.115598 29.7583411,29.8179804 C29.1699811,30.8627647 29.3237751,32.1776961 30.1014363,33.0853039 L30.1615336,33.1555098 C30.604367,33.6722941 31.219331,33.981049 31.8814613,34.1084118 C32.0406608,34.1390392 32.192441,34.2191667 32.3127416,34.348902 C32.4975911,34.5481961 32.5558866,34.8208235 32.5008769,35.0739314 L47.9425985,19.3976373 C48.2511404,19.0844608 48.2824079,18.570049 47.9832993,18.247598 C47.6738035,17.9140392 47.1565639,17.9081078 46.8394367,18.2298039 L35.9501654,29.2844804 C35.2104492,30.0355 34.0258857,29.1085882 34.5440792,28.1851275 C35.4096076,26.6426471 36.480548,25.2107059 37.7386697,23.9335196 L48.9320312,12.5700882 C49.0828574,12.4170588 49.2298679,12.260902 49.3731687,12.1018333 C49.8578689,11.5636961 49.6565906,11.113451 48.9392386,11.113451 L48.7030891,11.113451 C48.5474932,11.2713333 48.3435652,11.3503824 48.1397431,11.3503824 C47.9421745,11.3503824 47.744606,11.2762941 47.591024,11.1280098 C47.2653114,10.8136471 47.282588,10.2678529 47.6004572,9.94518627 L52.7518668,4.71554902 C52.8846744,4.5807451 52.9681959,4.40388235 52.9880163,4.21407843 C52.9890762,4.20448039 52.9900302,4.19488235 52.9909841,4.18517647 C53.0714318,3.40245098 52.1401885,2.95091176 51.5926353,3.50673529 L51.5926353,3.50673529 Z" id="Path" fill="url(#linearGradient-10)"></path>
                        <path d="M36.5076818,34.3311078 L34.0405126,36.8357647 C33.2853216,37.6024216 31.9963563,36.9983922 32.0840114,35.9178039 C32.0850714,35.9052941 32.0860253,35.8927843 32.0870852,35.8803824 C32.0939747,35.7977745 32.1105094,35.7171078 32.1342515,35.6389216 L27.7310375,39.8125588 C26.8402831,40.7169314 26.2248952,42.0974314 25.8409932,43.3155196 C23.9715112,49.2466765 18.9214298,53.7534412 12.77497,54.7793529 C13.3710674,54.8783529 13.977552,54.9458627 14.5932579,54.9778922 C22.2770216,55.3766961 28.9634032,50.3471078 31.1797961,43.3156275 C31.5636981,42.0975392 32.2103536,40.9816863 33.101108,40.0774216 L37.6108437,35.4991569 C37.9193855,35.1859804 37.9506531,34.6715686 37.6515445,34.3491176 C37.3420487,34.0153431 36.8247031,34.0094118 36.5076818,34.3311078 L36.5076818,34.3311078 Z" id="Path" fill="url(#linearGradient-11)"></path>
                    </g>
                    <g id="Group" transform="translate(3.000000, 24.000000)">
                        <ellipse id="Oval" fill="url(#linearGradient-12)" cx="13.5069518" cy="13.506794" rx="13.4552402" ry="13.435445"></ellipse>
                        <g transform="translate(3.813875, 0.000000)">
                            <path d="M9.69307645,0.0713489548 C8.8687185,0.0713489548 8.06309342,0.149306368 7.27956637,0.291108216 C13.5585513,1.42720311 18.321633,6.90975984 18.321633,13.506906 C18.321633,15.6554392 17.8138267,17.6841241 16.9155469,19.4846491 C16.4603496,17.438155 14.5737152,15.9295222 12.358078,16.0632595 C10.204921,16.1931885 8.43303933,17.9203485 8.2558063,20.0669775 C8.16270287,21.1946719 8.49742652,22.2421686 9.11549867,23.0654258 C10.0967864,24.3724445 9.40815752,26.2591035 7.81160199,26.6152883 C7.63549068,26.654603 7.45814548,26.6904455 7.27956637,26.7227037 C8.06298124,26.8645056 8.86860633,26.942463 9.69296428,26.942463 C17.1240761,26.942463 23.1482044,20.9271973 23.1482044,13.507018 C23.1482044,6.0868387 17.1241883,0.0713489548 9.69307645,0.0713489548 L9.69307645,0.0713489548 Z" id="Path" fill="url(#linearGradient-13)"></path>
                            <ellipse id="Oval" fill="url(#linearGradient-14)" cx="2.88945929" cy="13.2125495" rx="2.84649711" ry="2.84230938"></ellipse>
                            <ellipse id="Oval" fill="url(#linearGradient-15)" cx="11.5588467" cy="7.52804278" rx="2.84649711" ry="2.84230938"></ellipse>
                        </g>
                    </g>
                    <g id="Group">
                        <path d="M24.0729535,1.25203744 C24.0652977,0.564016523 23.5055593,0.00813845752 22.8127605,0.000535424837 C20.5272252,-0.0246295425 18.3279528,0.865889046 16.7117097,2.47098562 C15.2658359,3.90688795 13.2271203,4.55625119 11.1991876,4.29560638 C10.6767579,4.2284641 10.1416045,4.20169286 9.59685438,4.21871937 C4.24704558,4.38534358 -0.0327798983,8.80698897 2.61491167e-05,14.1224726 C0.0336425272,19.5115236 4.4261489,23.873951 9.85262385,23.9074438 C15.2050205,23.9401295 19.6575875,19.6900342 19.8255844,14.3770135 C19.8427292,13.8359132 19.815772,13.3043434 19.7480557,12.7853026 C19.485493,10.7714627 20.1393657,8.7469143 21.5853474,7.31101197 C23.2015905,5.70602248 24.0982932,3.52181041 24.0729535,1.25203744 Z" id="Path" fill="url(#linearGradient-16)"></path>
                        <g transform="translate(8.518460, 0.000000)" id="Path">
                            <path d="M2.08378794,4.23895843 C1.75264627,4.2163635 1.41762277,4.20811796 1.07839396,4.21861229 C0.733989368,4.22932078 0.394005752,4.25801956 0.0593057371,4.30310233 C0.7416452,4.38330897 1.42366118,4.35975027 2.08378794,4.23895843 L2.08378794,4.23895843 Z" fill="url(#linearGradient-17)"></path>
                            <path d="M14.2943001,0.000535424837 C13.6159503,-0.00696052288 12.9457954,0.0681060392 12.2956967,0.216739974 C12.6310437,0.44172549 12.8528472,0.820913359 12.8575916,1.25203744 C12.8829314,3.52181041 11.9862286,5.7059154 10.3699855,7.31101197 C8.92411166,8.7469143 8.27023895,10.7714627 8.5326938,12.7853026 C8.60030234,13.3042363 8.62725949,13.8359132 8.61022257,14.3770135 C8.45721377,19.217147 4.74812514,23.174579 0.0423766449,23.8158038 C0.465064808,23.8732014 0.896163602,23.9044702 1.33416343,23.9073367 C6.68656012,23.9400224 11.139127,19.6899271 11.307124,14.3769065 C11.3242688,13.8358061 11.2973116,13.3041293 11.2295952,12.7851955 C10.9670326,10.7713556 11.6210131,8.74680722 13.066887,7.31090489 C14.6831301,5.70580831 15.5798328,3.52170332 15.5544931,1.25193035 C15.5468372,0.564016523 14.9870989,0.00813845752 14.2943001,0.000535424837 Z" fill="url(#linearGradient-18)"></path>
                        </g>
                        <g transform="translate(2.372229, 6.532183)">
                            <ellipse id="Oval" fill="url(#linearGradient-19)" cx="7.54304279" cy="7.52839446" rx="7.51813438" ry="7.46628518"></ellipse>
                            <g transform="translate(2.048744, 0.000000)">
                                <path d="M5.49429914,0.0620021961 C5.03376314,0.0620021961 4.58357868,0.105371608 4.14579451,0.184079059 C7.65410626,0.815452026 10.3155321,3.86212643 10.3155321,7.52828737 C10.3155321,8.72228476 10.0317272,9.84967529 9.52989281,10.8501701 C9.27552511,9.71292779 8.22139259,8.87455958 6.98341229,8.94887655 C5.78036845,9.02105182 4.79028613,9.98085438 4.69129946,11.1737809 C4.63932607,11.8004421 4.82630089,12.382556 5.17167593,12.840023 C5.71998443,13.5663803 5.33525194,14.6148493 4.44318582,14.8127423 C4.34484613,14.8345876 4.24564381,14.8545054 4.14590234,14.8724957 C4.58357868,14.9513102 5.03376314,14.9945725 5.49440697,14.9945725 C9.64656337,14.9945725 13.0125414,11.6518082 13.0125414,7.52828737 C13.0125414,3.40476654 9.64645554,0.0620021961 5.49429914,0.0620021961 L5.49429914,0.0620021961 Z" id="Path" fill="url(#linearGradient-20)"></path>
                                <ellipse id="Oval" fill="url(#linearGradient-21)" cx="1.69280139" cy="7.36487571" rx="1.59047204" ry="1.57950327"></ellipse>
                                <ellipse id="Oval" fill="url(#linearGradient-22)" cx="6.53678617" cy="4.20586918" rx="1.59047204" ry="1.57950327"></ellipse>
                            </g>
                        </g>
                    </g>
                </g>
            </g>
        </g>
    </g>
</svg>