<?xml version="1.0" encoding="UTF-8"?>
<svg width="60px" height="61px" viewBox="0 0 60 61" version="1.1" xmlns="http://www.w3.org/2000/svg" xmlns:xlink="http://www.w3.org/1999/xlink">
    <title>ico_educate@1x</title>
    <defs>
        <linearGradient x1="-3.47833736%" y1="50%" x2="103.100566%" y2="50%" id="linearGradient-1">
            <stop stop-color="#D8ECFE" offset="0%"></stop>
            <stop stop-color="#B3DAFE" offset="56.67%"></stop>
            <stop stop-color="#8AC9FE" offset="99.55%"></stop>
        </linearGradient>
        <linearGradient x1="-119.972574%" y1="50%" x2="96.0141047%" y2="50%" id="linearGradient-2">
            <stop stop-color="#D8ECFE" offset="0%"></stop>
            <stop stop-color="#B3DAFE" offset="56.67%"></stop>
            <stop stop-color="#8AC9FE" offset="99.55%"></stop>
        </linearGradient>
        <linearGradient x1="-125.36843%" y1="50%" x2="1.98519627%" y2="50%" id="linearGradient-3">
            <stop stop-color="#D8ECFE" offset="0%"></stop>
            <stop stop-color="#B3DAFE" offset="56.67%"></stop>
            <stop stop-color="#8AC9FE" offset="99.55%"></stop>
        </linearGradient>
        <linearGradient x1="0%" y1="50%" x2="126.656733%" y2="50%" id="linearGradient-4">
            <stop stop-color="#EAF6FF" offset="0%"></stop>
            <stop stop-color="#D8ECFE" offset="52.13%"></stop>
            <stop stop-color="#B3DAFE" offset="100%"></stop>
        </linearGradient>
        <linearGradient x1="-137.781497%" y1="50%" x2="98.966998%" y2="50%" id="linearGradient-5">
            <stop stop-color="#EAF6FF" offset="0%"></stop>
            <stop stop-color="#D8ECFE" offset="52.13%"></stop>
            <stop stop-color="#B3DAFE" offset="100%"></stop>
        </linearGradient>
        <linearGradient x1="1.65664285%" y1="50.0001321%" x2="99.9091112%" y2="50.0001321%" id="linearGradient-6">
            <stop stop-color="#EAF6FF" offset="0%"></stop>
            <stop stop-color="#D8ECFE" offset="52.13%"></stop>
            <stop stop-color="#B3DAFE" offset="100%"></stop>
        </linearGradient>
        <linearGradient x1="-55.4961922%" y1="49.9999586%" x2="31.2015121%" y2="49.9999586%" id="linearGradient-7">
            <stop stop-color="#EAF6FF" offset="0%"></stop>
            <stop stop-color="#D8ECFE" offset="52.13%"></stop>
            <stop stop-color="#B3DAFE" offset="100%"></stop>
        </linearGradient>
        <linearGradient x1="9.83375838%" y1="50.0001436%" x2="112.837186%" y2="50.0001436%" id="linearGradient-8">
            <stop stop-color="#60B7FF" offset="0%"></stop>
            <stop stop-color="#0182FC" offset="58.57%"></stop>
            <stop stop-color="#2740B0" offset="100%"></stop>
        </linearGradient>
        <linearGradient x1="-47.0510859%" y1="49.9999391%" x2="110.680039%" y2="49.9999391%" id="linearGradient-9">
            <stop stop-color="#60B7FF" offset="0%"></stop>
            <stop stop-color="#0182FC" offset="58.57%"></stop>
            <stop stop-color="#2740B0" offset="100%"></stop>
        </linearGradient>
        <linearGradient x1="-1.72429955%" y1="49.999885%" x2="100.4294%" y2="49.999885%" id="linearGradient-10">
            <stop stop-color="#FEF056" offset="0%"></stop>
            <stop stop-color="#F4D902" offset="52.13%"></stop>
            <stop stop-color="#FE9738" offset="100%"></stop>
        </linearGradient>
        <linearGradient x1="-14.2912727%" y1="50%" x2="92.7273595%" y2="50%" id="linearGradient-11">
            <stop stop-color="#FEF056" offset="0%"></stop>
            <stop stop-color="#F4D902" offset="52.13%"></stop>
            <stop stop-color="#FE9738" offset="100%"></stop>
        </linearGradient>
        <linearGradient x1="-59.5594164%" y1="49.999885%" x2="70.6802654%" y2="49.999885%" id="linearGradient-12">
            <stop stop-color="#FEF056" offset="0%"></stop>
            <stop stop-color="#F4D902" offset="52.13%"></stop>
            <stop stop-color="#FE9738" offset="100%"></stop>
        </linearGradient>
        <linearGradient x1="-0.00107197221%" y1="50%" x2="126.656733%" y2="50%" id="linearGradient-13">
            <stop stop-color="#814AA0" offset="0%"></stop>
            <stop stop-color="#192A7D" offset="100%"></stop>
        </linearGradient>
        <linearGradient x1="-137.781497%" y1="50%" x2="98.966998%" y2="50%" id="linearGradient-14">
            <stop stop-color="#814AA0" offset="0%"></stop>
            <stop stop-color="#192A7D" offset="100%"></stop>
        </linearGradient>
    </defs>
    <g id="Website-images" stroke="none" stroke-width="1" fill="none" fill-rule="evenodd">
        <g id="Pixelbook" transform="translate(-553.000000, -2569.000000)">
            <g id="ico_educate" transform="translate(553.000000, 2569.000000)">
                <rect id="Border" x="0" y="0" width="60" height="60"></rect>
                <g id="3594078" transform="translate(5.000000, 2.000000)" fill-rule="nonzero">
                    <g id="Group" transform="translate(0.000000, 37.861111)">
                        <path d="M12.8536862,0.78486206 C12.590697,0.340750532 12.1125347,0.0681501065 11.5968024,0.0681501065 C11.0799317,0.0681501065 10.6017694,0.340750532 10.3387801,0.78486206 L0.206862127,17.9074627 C-0.367501897,18.8783746 0.334030535,20.1042814 1.46420133,20.1042814 C1.98073049,20.1042814 2.45889281,19.8319082 2.72142669,19.3881374 L10.1361304,6.85817238 L10.1361304,18.6478001 C10.1361304,19.4521985 10.7897327,20.1042814 11.5960055,20.1042814 L11.596347,20.1042814 C12.4026198,20.1042814 13.0562221,19.4521985 13.0562221,18.6478001 L13.0562221,6.85817238 L20.4709259,19.3881374 C20.7334597,19.8319082 21.2116221,20.1042814 21.7281512,20.1042814 C22.8582082,20.1042814 23.5598544,18.8783746 22.9853766,17.9074627 L12.8536862,0.78486206 Z" id="Path" fill="url(#linearGradient-1)"></path>
                        <g transform="translate(1.366178, 0.000000)" id="Path">
                            <path d="M8.77564475,5.37477173 L8.77564475,6.85249321 L8.76995234,6.86157989 L1.35274397,19.3921128 C1.22181858,19.6124648 1.03738454,19.7896551 0.822211494,19.9123253 C0.605899968,20.0361313 0.356572473,20.1042814 0.0981371238,20.1042814 L0.0582902638,20.1042814 L0.0594287455,20.1031456 L8.77564475,5.37477173 Z" fill="url(#linearGradient-2)"></path>
                            <path d="M21.8237837,18.6458691 C21.8237837,19.4057428 21.2158344,20.1042814 20.3619732,20.1042814 C19.8462409,20.1042814 19.3692171,19.8328168 19.1073663,19.3921128 L11.6901579,6.85817238 L11.6901579,18.6481408 C11.6901579,19.4523121 11.0366694,20.1042814 10.2306244,20.1042814 L10.2294859,20.1042814 C9.98698929,20.1042814 9.75815447,20.045218 9.5566432,19.9395853 L9.5566432,3.65511738 C9.5566432,3.3938753 9.48605734,3.1383124 9.35285498,2.91341705 C9.09669659,2.48066388 8.63674998,2.21374263 8.13467954,2.2001126 L8.97260209,0.78486206 C9.23559136,0.340750532 9.71375368,0.0681501065 10.2306244,0.0681501065 C10.7463566,0.0681501065 11.2245189,0.340750532 11.4875082,0.78486206 L21.618857,17.9075763 C21.7600287,18.1461017 21.8237837,18.3993929 21.8237837,18.6458691 L21.8237837,18.6458691 Z" fill="url(#linearGradient-3)"></path>
                        </g>
                    </g>
                    <g id="Group" transform="translate(6.444444, 33.833333)">
                        <ellipse id="Oval" fill="url(#linearGradient-4)" cx="5.24065126" cy="5.21514505" rx="5.21671675" ry="5.16180394"></ellipse>
                        <path d="M5.24065126,0.0533411123 C4.75592149,0.0533411123 4.2872972,0.120183502 3.84204819,0.242469662 C6.04368765,0.847592487 7.66016187,2.84390021 7.66016187,5.21514505 C7.66016187,7.58638989 6.04368765,9.58269762 3.84204819,10.1878204 C4.2872972,10.3102173 4.75603334,10.376949 5.24065126,10.376949 C8.12174003,10.376949 10.457368,8.06590657 10.457368,5.21514505 C10.457368,2.36438353 8.12174003,0.0533411123 5.24065126,0.0533411123 L5.24065126,0.0533411123 Z" id="Path" fill="url(#linearGradient-5)"></path>
                    </g>
                    <g id="Group" transform="translate(2.416667, 0.000000)">
                        <path d="M46.9288767,42.2497069 C37.6328913,51.5456923 20.9447633,49.9292456 9.6548052,38.6394009 C-1.63515289,27.3495562 -3.25159954,10.6612014 6.0443858,1.36521605 C15.3403711,-7.93076929 56.2247486,32.9537216 46.9288767,42.2497069 L46.9288767,42.2497069 Z" id="Path" fill="url(#linearGradient-6)"></path>
                        <path d="M7.69325661,0.329456722 C22.1306261,3.83194674 50.2667517,34.3747163 42.391761,42.2497069 C38.8597945,45.7816734 34.2603247,47.7366465 29.2955729,48.18605 C35.9488755,48.7667373 42.3397237,46.8388599 46.9288767,42.2497069 C55.7533512,33.4252324 19.3598339,-3.86255696 7.69325661,0.329456722 Z" id="Path" fill="url(#linearGradient-7)"></path>
                        <path d="M46.9288767,42.2497069 C44.5960374,44.5825462 40.2738736,43.7551632 35.2545902,41.0598761 C34.7575708,40.7930003 34.2537492,40.5077584 33.744259,40.2055107 C33.371948,39.9845502 32.9965759,39.7545201 32.6187097,39.5158737 C28.6829149,37.0295298 24.4767298,33.6074199 20.5541995,29.8032492 C20.2127254,29.4720919 20.8533861,28.3921178 20.5165603,28.0555187 C20.1699845,27.7091696 18.8461489,28.1060822 18.5053551,27.7547449 C14.6839519,23.8161158 11.2471038,19.590771 8.75588492,15.6397845 C8.49388406,15.2241657 8.71688522,14.8091137 8.4764249,14.4001837 C8.22043272,13.9649517 7.50245287,13.5365219 7.2724227,13.1104729 C4.54675218,8.0610328 3.70054951,3.70905235 6.0443858,1.36521605 C15.3403711,-7.93076929 56.2247486,32.9537216 46.9288767,42.2497069 Z" id="Path" fill="url(#linearGradient-8)"></path>
                        <path d="M7.69325661,0.329456722 C11.7274576,1.30819034 16.8314292,4.39857602 21.9203225,8.51542459 L6.89330939,12.3869379 C7.00690734,12.6094856 7.12447328,12.8336204 7.24566709,13.0591158 C7.58963533,13.6988695 8.33754517,14.3499603 8.73955946,15.0096673 L24.6432721,10.8167467 C24.6572168,10.8289908 24.6710481,10.8412349 24.6849927,10.853479 C26.9510564,12.8530069 27.0458347,16.3568574 24.9087875,18.4939046 L17.1136102,26.2890819 C17.5698159,26.7798659 18.0328239,27.2674754 18.5016138,27.7506635 C18.7088564,27.9642548 19.2639218,27.8305902 19.4733184,28.042481 L30.7741602,16.7416392 C31.4504194,17.4567848 32.112734,18.1798663 32.7580429,18.9075961 C33.9125019,20.209551 34.3362834,22.0043306 33.9021851,23.6893668 L30.2365539,37.9204007 C31.052033,38.4957596 31.8609365,39.0373338 32.6586163,39.5402485 C32.7053253,39.569725 32.888193,39.4629293 32.934902,39.4921791 L36.8517637,23.8967227 C42.6229249,31.5609563 45.7162583,38.9252097 42.391761,42.2497069 C41.9202502,42.7212178 41.3663185,43.0614447 40.7428902,43.2854663 C43.3479338,43.9173973 45.507882,43.6707016 46.9288767,42.2497069 C55.7533512,33.4252324 19.3598339,-3.86255696 7.69325661,0.329456722 Z" id="Path" fill="url(#linearGradient-9)"></path>
                    </g>
                    <path d="M46.2980734,4.45192655 C45.9355093,4.08936237 45.4080405,3.94591798 44.9121973,4.0735496 L9.66666667,13.1534669 C10.122978,14.001709 10.6312455,14.8702818 11.1880809,15.7524083 L40.4993055,8.20181156 L34.7660476,13.9350695 L20.8903436,27.8107735 C21.5623862,28.5042763 22.2457237,29.1876138 22.9392265,29.8596564 L36.8149305,15.9839524 L42.5481884,10.2506945 L34.9975917,39.5619191 C35.8797182,40.1187545 36.748291,40.627022 37.5965331,41.0833333 L46.6764504,5.83780273 C46.804082,5.34083002 46.6606376,4.81449074 46.2980734,4.45192655 L46.2980734,4.45192655 Z" id="Path" fill="url(#linearGradient-10)"></path>
                    <g id="Group" transform="translate(10.472222, 4.027778)">
                        <path d="M29.9090245,4.18227979 L30.9520396,3.14516459 L0.0660954126,11.054408 C0.200893776,11.274795 0.338753161,11.4960839 0.47978694,11.7182745 L29.9090245,4.18227979 Z" id="Path" fill="url(#linearGradient-11)"></path>
                        <path d="M35.7212261,0.439646663 C35.3573045,0.0777836403 34.827861,-0.0653833498 34.3301614,0.0620014524 L32.7414907,0.46895644 C33.0851188,0.829579434 33.2202573,1.33956956 33.0954356,1.8228427 C33.0305873,2.07332857 32.8993034,2.30194483 32.7153019,2.48490548 L10.7677703,24.3082894 C11.2651298,24.8100503 11.7662305,25.308091 12.2749271,25.7982407 L31.9533341,6.23103324 L31.9571887,6.22720042 L24.3783236,35.4817403 C25.2637527,36.0374988 26.1355773,36.5447834 26.9869951,37.0002122 L36.1009062,1.8228427 C36.2291291,1.32683108 36.0851476,0.801509685 35.7212261,0.439646663 L35.7212261,0.439646663 Z" id="Path" fill="url(#linearGradient-12)"></path>
                    </g>
                    <g id="Group" transform="translate(40.277778, 0.000000)">
                        <ellipse id="Oval" fill="url(#linearGradient-13)" cx="5.23882762" cy="5.21671675" rx="5.16180394" ry="5.21671675"></ellipse>
                        <path d="M5.23882762,0 C4.75920028,0 4.29550886,0.0675534789 3.85494669,0.191140555 C6.03341099,0.802700858 7.6328697,2.8202459 7.6328697,5.21671675 C7.6328697,7.6131876 6.03341099,9.63073264 3.85494669,10.2422929 C4.29550886,10.3659919 4.75931094,10.4334335 5.23882762,10.4334335 C8.08958914,10.4334335 10.4006316,8.09780552 10.4006316,5.21671675 C10.4006316,2.33562798 8.08958914,0 5.23882762,0 L5.23882762,0 Z" id="Path" fill="url(#linearGradient-14)"></path>
                    </g>
                </g>
            </g>
        </g>
    </g>
</svg>