<?xml version="1.0" encoding="UTF-8"?>
<svg width="60px" height="60px" viewBox="0 0 60 60" version="1.1" xmlns="http://www.w3.org/2000/svg" xmlns:xlink="http://www.w3.org/1999/xlink">
    <title>ico_elevate@1x</title>
    <defs>
        <linearGradient x1="-24.6997197%" y1="49.9993646%" x2="142.286801%" y2="49.9993646%" id="linearGradient-1">
            <stop stop-color="#FD8087" offset="0%"></stop>
            <stop stop-color="#FB2B3A" offset="52.13%"></stop>
            <stop stop-color="#D90D80" offset="100%"></stop>
        </linearGradient>
        <linearGradient x1="-160.781477%" y1="49.9999758%" x2="107.056049%" y2="49.9999758%" id="linearGradient-2">
            <stop stop-color="#FD8087" offset="0%"></stop>
            <stop stop-color="#FB2B3A" offset="52.13%"></stop>
            <stop stop-color="#D90D80" offset="100%"></stop>
        </linearGradient>
        <linearGradient x1="-61.42%" y1="50%" x2="263.064%" y2="50%" id="linearGradient-3">
            <stop stop-color="#814AA0" offset="0%"></stop>
            <stop stop-color="#192A7D" offset="100%"></stop>
        </linearGradient>
        <linearGradient x1="-18.5863976%" y1="50.0000553%" x2="86.1700635%" y2="50.0000553%" id="linearGradient-4">
            <stop stop-color="#EAF6FF" offset="0%"></stop>
            <stop stop-color="#D8ECFE" offset="52.13%"></stop>
            <stop stop-color="#B3DAFE" offset="100%"></stop>
        </linearGradient>
        <linearGradient x1="-69.1951127%" y1="50.0015755%" x2="97.752125%" y2="50.0015755%" id="linearGradient-5">
            <stop stop-color="#EAF6FF" offset="0%"></stop>
            <stop stop-color="#D8ECFE" offset="52.13%"></stop>
            <stop stop-color="#B3DAFE" offset="100%"></stop>
        </linearGradient>
        <linearGradient x1="-16.6066093%" y1="50.0006853%" x2="110.326073%" y2="50.0006853%" id="linearGradient-6">
            <stop stop-color="#EAF6FF" offset="0%"></stop>
            <stop stop-color="#D8ECFE" offset="52.13%"></stop>
            <stop stop-color="#B3DAFE" offset="100%"></stop>
        </linearGradient>
        <linearGradient x1="-83.699475%" y1="50.0018808%" x2="54.1443026%" y2="50.0018808%" id="linearGradient-7">
            <stop stop-color="#EAF6FF" offset="0%"></stop>
            <stop stop-color="#D8ECFE" offset="52.13%"></stop>
            <stop stop-color="#B3DAFE" offset="100%"></stop>
        </linearGradient>
        <linearGradient x1="-12.317522%" y1="49.9990469%" x2="92.5384948%" y2="49.9990469%" id="linearGradient-8">
            <stop stop-color="#EAF6FF" offset="0%"></stop>
            <stop stop-color="#D8ECFE" offset="52.13%"></stop>
            <stop stop-color="#B3DAFE" offset="100%"></stop>
        </linearGradient>
        <linearGradient x1="-85.5680757%" y1="49.9966289%" x2="53.0448277%" y2="49.9966289%" id="linearGradient-9">
            <stop stop-color="#EAF6FF" offset="0%"></stop>
            <stop stop-color="#D8ECFE" offset="52.13%"></stop>
            <stop stop-color="#B3DAFE" offset="100%"></stop>
        </linearGradient>
        <linearGradient x1="-4.73647059%" y1="50.0001616%" x2="109.462353%" y2="50.0001616%" id="linearGradient-10">
            <stop stop-color="#EAF6FF" offset="0%"></stop>
            <stop stop-color="#D8ECFE" offset="52.13%"></stop>
            <stop stop-color="#B3DAFE" offset="100%"></stop>
        </linearGradient>
        <linearGradient x1="-568.968974%" y1="50%" x2="154.545455%" y2="50%" id="linearGradient-11">
            <stop stop-color="#EAF6FF" offset="0%"></stop>
            <stop stop-color="#D8ECFE" offset="52.13%"></stop>
            <stop stop-color="#B3DAFE" offset="100%"></stop>
        </linearGradient>
        <linearGradient x1="-229.130711%" y1="50%" x2="229.859559%" y2="50%" id="linearGradient-12">
            <stop stop-color="#EAF6FF" offset="0%"></stop>
            <stop stop-color="#D8ECFE" offset="52.13%"></stop>
            <stop stop-color="#B3DAFE" offset="100%"></stop>
        </linearGradient>
        <linearGradient x1="-167.564934%" y1="50.0003231%" x2="26.6185716%" y2="50.0003231%" id="linearGradient-13">
            <stop stop-color="#EAF6FF" offset="0%"></stop>
            <stop stop-color="#D8ECFE" offset="52.13%"></stop>
            <stop stop-color="#B3DAFE" offset="100%"></stop>
        </linearGradient>
    </defs>
    <g id="Website-images" stroke="none" stroke-width="1" fill="none" fill-rule="evenodd">
        <g id="Pixelbook" transform="translate(-753.000000, -2569.000000)">
            <g id="ico_elevate" transform="translate(753.000000, 2569.000000)">
                <rect id="Border" x="0" y="0" width="60" height="60"></rect>
                <g id="3594085" transform="translate(2.000000, 3.000000)" fill-rule="nonzero">
                    <path d="M26.4727273,3.42900409 L26.4727273,10.1225109 C26.4727273,10.9636134 27.0443114,11.7101274 27.8804897,11.9420795 C32.1979176,13.1399911 36.2004198,10.0126831 40.4772998,10.6584077 C41.6758002,10.8393871 42.7636364,9.96181549 42.7636364,8.78912755 L42.7636364,2.0956207 C42.7636364,1.25451821 42.1920522,0.50800428 41.355874,0.276052112 C37.0387722,-0.921754345 33.03627,2.20565872 28.7590639,1.55972396 C27.5606721,1.37874452 26.4727273,2.25631615 26.4727273,3.42900409 Z" id="Path" fill="url(#linearGradient-1)"></path>
                    <path d="M41.3727971,0.275939288 C40.3113558,-0.0221347242 39.2692466,-0.0521943743 38.2373405,0.0605818652 C38.3867349,0.0924282776 38.5364515,0.128583941 38.6865977,0.170835617 C39.512724,0.402799419 40.077437,1.1494559 40.077437,1.99049548 L40.077437,8.68433811 C40.077437,9.85708487 39.002678,10.7347005 37.8185851,10.553712 C34.6446791,10.0686586 31.6237117,11.7122698 28.5090909,12.0529108 C32.6038507,12.9243253 36.4281754,10.0357611 40.5047845,10.6588157 C41.6888774,10.8398042 42.7636364,9.96218854 42.7636364,8.78944178 L42.7636364,2.09570426 C42.7636364,1.25455957 42.1989234,0.507903091 41.3727971,0.275939288 Z" id="Path" fill="url(#linearGradient-2)"></path>
                    <path d="M26.9818182,24.4363636 C26.1382749,24.4363636 25.4545455,23.8055906 25.4545455,23.0273817 L25.4545455,2.42716377 C25.4545455,1.64895486 26.1382749,1.01818182 26.9818182,1.01818182 C27.8253615,1.01818182 28.5090909,1.64895486 28.5090909,2.42716377 L28.5090909,23.0273817 C28.5090909,23.8055906 27.8253615,24.4363636 26.9818182,24.4363636 Z" id="Path" fill="url(#linearGradient-3)"></path>
                    <g id="Group" transform="translate(2.036364, 24.436364)">
                        <path d="M14.2459948,0.549499593 L0.38444528,14.1762718 L1.08877744,12.040895 C1.47472908,10.8694828 1.51701483,9.63856932 1.24629994,8.48222076 C1.04433974,7.61326467 0.665166729,6.78713233 0.123414144,6.05622363 C0.113837981,6.04374234 0.105015,6.03050787 0.0946856553,6.01867216 C0.0940400713,6.01791898 0.0940400713,6.01791898 0.09328689,6.0172734 C-0.160858017,5.59151074 0.882082957,4.02908983 2.48689722,2.45149769 C4.09171148,0.87390556 5.67167075,-0.142243678 6.09302192,0.11911025 L6.09442068,0.120509016 C6.1060412,0.130945957 6.11916807,0.140091731 6.13143417,0.149883088 C7.8140413,1.44191189 10.0367871,1.8574528 12.0986748,1.21724866 L14.2459948,0.549499593 Z" id="Path" fill="url(#linearGradient-4)"></path>
                        <path d="M6.13164936,0.149883088 C6.48510661,0.509473384 5.42720961,2.12354102 3.76805869,3.75460903 C2.10890778,5.38567704 0.476978989,6.41581393 0.123521741,6.05622363 C0.113945578,6.04374234 0.105122597,6.03050787 0.0947932527,6.01867216 C0.0941476686,6.01791898 0.0941476686,6.01791898 0.0933944873,6.0172734 C-0.160750419,5.59151074 0.882190554,4.02908983 2.48700481,2.45149769 C4.09181907,0.87390556 5.67177835,-0.142243678 6.09312952,0.11911025 L6.09452828,0.120509016 C6.10625639,0.131053555 6.11927567,0.140091731 6.13164936,0.149883088 L6.13164936,0.149883088 Z" id="Path" fill="url(#linearGradient-5)"></path>
                    </g>
                    <g id="Group" transform="translate(39.709091, 24.436364)">
                        <path d="M13.7579757,14.2225386 L0.0280788289,0.360989061 L2.17963265,1.06532122 C3.35991917,1.45127286 4.6001578,1.49355862 5.76526658,1.22284372 C6.64080566,1.02088352 7.47319658,0.641710509 8.20964247,0.0999579248 C8.22221832,0.0903817619 8.23555305,0.0815587804 8.24747842,0.0712294362 C8.24823731,0.0705838521 8.24823731,0.0705838521 8.24888778,0.0698306708 C8.67787591,-0.184314236 10.2521333,0.858626738 11.8416769,2.463441 C13.4312205,4.06825526 14.4550679,5.64821453 14.191734,6.0695657 C14.1910835,6.07021128 14.1910835,6.07021128 14.1903246,6.07096447 C14.1798086,6.08258498 14.1705936,6.09571185 14.160728,6.10797795 C12.8589111,7.79058508 12.4402222,10.0133308 13.0852763,12.0752186 L13.7579757,14.2225386 Z" id="Path" fill="url(#linearGradient-6)"></path>
                        <path d="M14.1606196,6.10819314 C13.7983051,6.46165039 12.1720097,5.40375339 10.5285851,3.74460247 C8.88516055,2.08545156 7.84721959,0.453522769 8.20953406,0.100065522 C8.2221099,0.0904893592 8.23544464,0.0816663777 8.24737001,0.0713370335 C8.2481289,0.0706914495 8.2481289,0.0706914495 8.24877937,0.0699382681 C8.6777675,-0.184206639 10.2520249,0.858734335 11.8415685,2.4635486 C13.4311121,4.06836286 14.4549595,5.64832213 14.1916256,6.0696733 C14.1909751,6.07031888 14.1909751,6.07031888 14.1902162,6.07107206 C14.1797002,6.08280017 14.1704851,6.09592705 14.1606196,6.10819314 L14.1606196,6.10819314 Z" id="Path" fill="url(#linearGradient-7)"></path>
                    </g>
                    <g id="Group" transform="translate(30.545455, 20.363636)">
                        <path d="M13.196539,8.05554276 L0.0637622678,3.2423957 L1.65160348,2.99027847 C2.52252105,2.85160824 3.32131759,2.45690484 3.97222854,1.87331508 C4.46185846,1.43576672 4.86747221,0.891336328 5.16024283,0.268356848 C5.16517235,0.257530434 5.17074485,0.246819195 5.17503139,0.235762432 C5.17524572,0.235071385 5.17524572,0.235071385 5.17546004,0.234380337 C5.36567521,-0.0863809596 6.69643125,0.0908727695 8.21686664,0.648087546 C9.73730203,1.20530232 10.8915598,1.93884943 10.8598394,2.31765873 C10.8596251,2.31834978 10.8596251,2.31834978 10.8594108,2.31904083 C10.8565174,2.33067346 10.8548027,2.3427668 10.8525523,2.35451461 C10.5672831,3.95290788 11.0140477,5.61994523 12.0828962,6.81326939 L13.196539,8.05554276 Z" id="Path" fill="url(#linearGradient-8)"></path>
                        <path d="M10.8524451,2.35451461 C10.7362799,2.7206547 9.36780236,2.5510025 7.79582134,1.97489908 C6.22384032,1.39879567 5.04397046,0.634496942 5.16013567,0.268356848 C5.16506519,0.257530434 5.17063769,0.246819195 5.17492423,0.235762432 C5.17513855,0.235071385 5.17513855,0.235071385 5.17535288,0.234380337 C5.36556805,-0.0863809596 6.69632408,0.0908727695 8.21675947,0.648087546 C9.73719486,1.20530232 10.8914527,1.93884943 10.8597323,2.31765873 C10.8595179,2.31834978 10.8595179,2.31834978 10.8593036,2.31904083 C10.8564102,2.33055829 10.8548027,2.34265162 10.8524451,2.35451461 L10.8524451,2.35451461 Z" id="Path" fill="url(#linearGradient-9)"></path>
                    </g>
                    <path d="M28,22.4 C12.5359843,22.4 0,34.7945007 0,50.0839864 C0,51.0746388 0.053145098,52.0530235 0.15625098,53.0166433 C0.337537255,54.7098177 1.77146667,56 3.49352157,56 L52.5065882,56 C54.2286431,56 55.6625725,54.7098177 55.843749,53.0166433 C55.9468549,52.0530235 56,51.0747474 56,50.0839864 C56,34.7946092 43.4640157,22.4 28,22.4 Z" id="Path" fill="url(#linearGradient-10)"></path>
                    <g id="Group" transform="translate(4.072727, 21.381818)">
                        <ellipse id="Oval" fill="url(#linearGradient-11)" cx="21.0985496" cy="13.3525303" rx="4.07604068" ry="4.11087863"></ellipse>
                        <ellipse id="Oval" fill="url(#linearGradient-12)" cx="6.5087428" cy="26.2590518" rx="6.42513455" ry="6.48005023"></ellipse>
                        <path d="M23.7460709,0.0564751515 C23.0022114,0.0564751515 22.2653101,0.0861051127 21.5360296,0.143137218 C27.9589552,0.645955431 33.7765217,3.32267711 38.2686156,7.44346953 C38.7291789,7.86597495 38.4235725,8.63167552 37.8009837,8.63022744 C37.7943569,8.63022744 37.7878405,8.63022744 37.7812137,8.63022744 C33.0369696,8.63022744 29.1911002,12.509079 29.1911002,17.2937607 C29.1911002,21.6573852 32.3903034,25.2658912 36.5518299,25.8676244 C35.8572297,26.6401198 35.4499018,27.6800646 35.5001551,28.8162511 C35.5943662,30.9491628 37.3362234,32.6761662 39.4521639,32.7373198 C41.7580731,32.8040429 43.6480394,30.938692 43.6480394,28.628112 C43.6480394,27.8637481 43.4410621,27.1482848 43.0805636,26.5354125 C42.5436815,25.622676 42.7065906,24.4690011 43.492199,23.7631175 C43.5583566,23.7037461 43.6235202,23.6432609 43.6878003,23.5818846 C44.9570554,22.3688384 47.05422,23.1578197 47.2712481,24.907881 C47.4156021,26.0718038 47.4900433,27.2576706 47.4900433,28.4610258 C47.4900433,29.4774671 47.436587,30.4813213 47.3328774,31.4700263 C47.1505297,33.2072777 45.7082044,34.5310463 43.976177,34.5310463 L48.3962596,34.5310463 C50.1283974,34.5310463 51.5707227,33.2072777 51.75296,31.4700263 C51.8566696,30.4813213 51.9101259,29.4774671 51.9101259,28.4610258 C51.9101259,12.7737436 39.3006309,0.0564751515 23.7460709,0.0564751515 L23.7460709,0.0564751515 Z" id="Path" fill="url(#linearGradient-13)"></path>
                    </g>
                </g>
            </g>
        </g>
    </g>
</svg>