<svg xmlns="http://www.w3.org/2000/svg" xmlns:xlink="http://www.w3.org/1999/xlink" width="554.903" height="487.407" viewBox="0 0 554.903 487.407">
  <defs>
    <linearGradient id="linear-gradient" x1="0.229" y1="0.249" x2="0.796" y2="0.774" gradientUnits="objectBoundingBox">
      <stop offset="0" stop-color="#7acbff"/>
      <stop offset="1" stop-color="#45a2e0"/>
    </linearGradient>
    <linearGradient id="linear-gradient-2" x1="0.3" y1="0.3" x2="0.974" y2="0.974" gradientUnits="objectBoundingBox">
      <stop offset="0" stop-color="#fff"/>
      <stop offset="1" stop-color="#c7e9ff"/>
    </linearGradient>
    <linearGradient id="linear-gradient-3" x1="0.581" y1="0.569" x2="0.459" y2="0.344" gradientUnits="objectBoundingBox">
      <stop offset="0" stop-color="#7acbff" stop-opacity="0"/>
      <stop offset="1" stop-color="#2f73a0"/>
    </linearGradient>
    <linearGradient id="linear-gradient-4" x1="0.3" y1="0.3" x2="0.974" y2="0.974" gradientUnits="objectBoundingBox">
      <stop offset="0" stop-color="#ff4181"/>
      <stop offset="1" stop-color="#843561"/>
    </linearGradient>
    <linearGradient id="linear-gradient-6" x1="0.3" y1="0.3" x2="0.974" y2="0.974" xlink:href="#linear-gradient-4"/>
    <linearGradient id="linear-gradient-7" x1="0.525" y1="0.606" x2="0.432" y2="0.367" gradientUnits="objectBoundingBox">
      <stop offset="0" stop-color="#843561" stop-opacity="0"/>
      <stop offset="1" stop-color="#3a2f4d"/>
    </linearGradient>
    <linearGradient id="linear-gradient-8" x1="0.704" y1="0.878" x2="0.482" y2="0.454" xlink:href="#linear-gradient-7"/>
    <linearGradient id="linear-gradient-9" x1="2.062" y1="2.757" x2="0.785" y2="0.878" xlink:href="#linear-gradient-7"/>
    <linearGradient id="linear-gradient-10" x1="0.057" y1="0.281" x2="0.729" y2="0.945" gradientUnits="objectBoundingBox">
      <stop offset="0" stop-color="#ffe0ea"/>
      <stop offset="1" stop-color="#ffc0d5"/>
    </linearGradient>
    <linearGradient id="linear-gradient-11" y1="0.5" x2="1" y2="0.5" gradientUnits="objectBoundingBox">
      <stop offset="0" stop-color="#ffce47"/>
      <stop offset="1" stop-color="#ff9356"/>
    </linearGradient>
    <linearGradient id="linear-gradient-12" x1="0.632" y1="0.632" x2="0.311" y2="0.311" xlink:href="#linear-gradient-11"/>
    <linearGradient id="linear-gradient-13" x1="0.309" y1="0.551" x2="0.929" y2="1.17" gradientUnits="objectBoundingBox">
      <stop offset="0" stop-color="#2f73a0"/>
      <stop offset="1" stop-color="#174461"/>
    </linearGradient>
  </defs>
  <g id="Image_02" transform="translate(0.987 -1.614)">
    <path id="Fill-3" d="M475.223,372.337a40.569,40.569,0,1,1-16.887-54.832h0A40.569,40.569,0,0,1,475.223,372.337Zm44.168,7.446c-4.143-2.756-8.385-5.366-12.47-8.2a3.6,3.6,0,0,1-1.334-2.743c.5-5.742,1.322-11.456,1.779-17.2.133-1.672.506-2.55,2.1-3.187,5.631-2.246,11.2-4.643,16.794-6.989.907-.38,1.8-.793,3.363-1.484l-8.212-25.783c-7.208,1.481-13.783,2.721-20.295,4.23-2.3.532-3.552.274-5.046-1.849-3.055-4.337-6.712-8.246-10-12.428a3.268,3.268,0,0,1-.442-2.694c2.178-5.753,4.35-11.519,6.872-17.125,1.21-2.69.588-4.129-1.824-5.36a16.769,16.769,0,0,1-2.517-1.937l-12.487-6.606a8.532,8.532,0,0,1-1.561-.313c-5.074-2.036-4.1-2-6.944,2.242-3.467,5.17-6.846,10.4-9.813,14.914l-22.493-1.95-8.913-21.231a86.422,86.422,0,0,0-25.7,8.181c1.471,7.087,2.887,14,4.354,20.9a2.391,2.391,0,0,1-1.017,2.908c-4.736,3.592-9.387,7.311-13.865,11.219a2.814,2.814,0,0,1-3.524.56c-5.773-2.382-11.6-4.63-17.383-6.988-1.436-.586-2.364-.536-3.415.872a77.05,77.05,0,0,0-10.526,20.742c-.517,1.459.188,2.085,1.292,2.792,5.108,3.271,10.137,6.667,15.268,9.9a3.038,3.038,0,0,1,1.652,3.645c-.972,6.579-1.561,13.213-2.355,20.36l-20.372,8.552a80.551,80.551,0,0,0,8.006,26.073l22.049-4.686c4.284,4.872,8.15,9.5,12.3,13.866,1.568,1.648,1.853,2.9.956,4.953-2.389,5.475-4.565,11.043-6.77,16.6-.436,1.1-1.3,2.377.415,3.268q10.462,5.433,20.921,10.873c1.483.769,2.412.266,3.3-1.132,3.292-5.2,6.813-10.259,10.016-15.512,1.236-2.027,2.579-2.113,4.675-1.845a141.484,141.484,0,0,0,15.607,1.3c2.246.036,3.073.616,3.844,2.608,2.478,6.4,5.208,12.7,7.786,18.91,5.565-.039,20.693-4.891,26.134-8.323-1.477-6.82-2.9-13.733-4.512-20.6-.4-1.718.1-2.461,1.411-3.505,4.224-3.369,8.21-7.037,12.4-10.45a3.566,3.566,0,0,1,2.954-.587c5.154,1.978,10.239,4.136,15.322,6.293,2.842,1.206,3.984,1.7,5.067.967l11.723-22.157c.016-1.8-1.221-2.637-4.573-4.867Z" transform="translate(-281.053 -218.917)" fill="url(#linear-gradient)"/>
    <path id="Fill-4" d="M1388.449,494.255c-.948-2.279-1.95-4.592-2.859-6.942a1.249,1.249,0,0,0-1.412-.957,51.876,51.876,0,0,1-5.727-.479,4.173,4.173,0,0,0-.519-.04,1.266,1.266,0,0,0-1.2.718c-1.174,1.928-2.466,3.785-3.676,5.694-.221.35-.451.548-.748.548a1.013,1.013,0,0,1-.462-.132q-3.843-1.994-7.68-3.991c-.628-.327-.311-.8-.153-1.2.811-2.038,1.609-4.083,2.485-6.092a1.419,1.419,0,0,0-.35-1.818c-1.524-1.6-2.944-3.3-4.517-5.09l-8.093,1.72a29.64,29.64,0,0,1-2.939-9.571l7.478-3.139c.292-2.624.508-5.059.866-7.474a1.117,1.117,0,0,0-.606-1.338c-1.885-1.188-3.731-2.434-5.6-3.635-.407-.259-.664-.489-.475-1.025a28.274,28.274,0,0,1,3.865-7.614.891.891,0,0,1,.721-.45,1.448,1.448,0,0,1,.533.129c2.122.866,4.261,1.691,6.38,2.565a1.49,1.49,0,0,0,.557.138,1.107,1.107,0,0,0,.737-.344c1.644-1.434,3.351-2.8,5.088-4.118a.878.878,0,0,0,.374-1.068c-.538-2.534-1.057-5.072-1.6-7.674a31.729,31.729,0,0,1,9.434-3l3.272,7.793,8.256.716c1.09-1.658,2.33-3.577,3.6-5.475.62-.925.746-1.3,1.136-1.3a5.314,5.314,0,0,1,1.412.482,3.161,3.161,0,0,0,.573.115l4.586,2.425a6.109,6.109,0,0,0,.923.711,1.274,1.274,0,0,1,.669,1.968c-.926,2.057-1.723,4.174-2.524,6.286a1.2,1.2,0,0,0,.164.989c1.2,1.535,2.548,2.97,3.671,4.562a1.411,1.411,0,0,0,1.218.766,2.852,2.852,0,0,0,.634-.087c2.39-.554,4.8-1.009,7.451-1.553,1.016,3.2,2.01,6.313,3.012,9.465-.574.253-.9.405-1.234.545-2.051.861-4.1,1.741-6.164,2.566a1.119,1.119,0,0,0-.773,1.17c-.167,2.109-.47,4.206-.653,6.314a1.329,1.329,0,0,0,.489,1.007c1.5,1.041,3.059,2,4.578,3.011,1.232.819,1.685,1.127,1.68,1.787l-4.3,8.133a.691.691,0,0,1-.407.127,4.566,4.566,0,0,1-1.453-.482c-1.865-.792-3.731-1.584-5.624-2.31a.789.789,0,0,0-.279-.044,1.391,1.391,0,0,0-.806.26c-1.538,1.253-3,2.6-4.553,3.836a1.072,1.072,0,0,0-.516,1.287c.59,2.521,1.114,5.058,1.655,7.562-2,1.26-7.549,3.041-9.592,3.055m-5.165-47.8a14.89,14.89,0,0,0-13.175,7.931h0a14.882,14.882,0,1,0,13.175-7.931" transform="translate(-1008.108 -338.48)" fill="#ebf3fe" fill-rule="evenodd"/>
    <path id="Fill-5" d="M306.7,1125.036s-77.822-38.37-91.206-58.385,6.29-21.148,6.29-21.148-34.728-33.774-29.843-48,22.876-1.177,22.876-1.177-22.33-49.708-11.8-54.705c19.612-9.308,47.124,44.177,47.124,44.177s-5.912-23.234,7.592-22.48c20.366,1.139,19.525,53.7,19.525,53.7s2.3-20.151,14.576-13.6c22.025,11.744,14.867,121.622,14.867,121.622" transform="translate(-165.561 -710.619)" fill="#3c8f7c" fill-rule="evenodd"/>
    <path id="Fill-6" d="M327,995.283c-9.585-5.318-19.133,10.228-19.133,10.228s.967-41.05-19.4-42.189c-13.5-.754-7.592,22.48-7.592,22.48s-27.512-53.484-47.124-44.177l103.773,182.558c.733-12.749,8.464-118.364-10.525-128.9" transform="translate(-196.289 -710.619)" fill="#50bfa5" fill-rule="evenodd"/>
    <path id="Fill-7" d="M235.726,1399.9s-63.648,7.907-80.128.86-4.67-15.745-4.67-15.745-35.386-6.956-38.116-17.81,13.594-9.988,13.594-9.988-33.931-21.972-29.394-29.368c8.45-13.773,47.343,8.407,47.343,8.407s-13.129-12.091-4.4-17.105c13.166-7.565,34,25.556,34,25.556s-1.294-8.163,9.022-9.068c18.51-1.625,52.75,64.262,52.75,64.262" transform="translate(-96.594 -985.008)" fill="#3c8f7c" fill-rule="evenodd"/>
    <path id="Fill-8" d="M184.5,1313.772c-10.316.9-9.44,15-9.44,15s-21.208-39.263-34.374-31.7c-8.73,5.017,1.6,21.495,1.6,21.495s-35.716-20.427-44.166-6.653l138.907,71.7c-4.723-8.248-35.236-71.36-52.526-69.842" transform="translate(-97.705 -969.074)" fill="#50bfa5" fill-rule="evenodd"/>
    <path id="Fill-9" d="M1846.541,1235.839l3.419-8.262c2.652-6.077,9.439-8.977,15.161-6.481,14.415,6.293,20.681,23.808,14,39.119l-4.886,11.2a14.055,14.055,0,0,0,1.491,14.1,12.413,12.413,0,0,1,1.232,12.424l-2.578,5.9a23.467,23.467,0,0,1-14.653,13.074,14.231,14.231,0,0,0-8.846,7.994l-3.649,8.357c-4.034,9.24-14.352,13.65-23.051,9.854l-4.963-2.166c-8.7-3.8-12.479-14.363-8.445-23.6,6.522-11.048,6-19.293,3.69-24.887a33.455,33.455,0,0,1,.319-26.1l.514-1.18a33.222,33.222,0,0,1,20.3-18.367c3.941-1.254,8.046-4.318,10.952-10.977" transform="translate(-1341.423 -913.9)" fill="#50bfa5" fill-rule="evenodd"/>
    <path id="Fill-10" d="M464.75,1564.9c-9.237-11.976-59.9-76.148-92.931-86.841-36.462-11.8-2.1,35.077-2.1,35.077s-64.683-70.729-88.419-64.352c-21.759,5.845,0,49.686,0,49.686S256.8,1474.2,227.077,1474.2c-28.924,0,20.207,86.1,22.858,90.708H464.75" transform="translate(-184.834 -1079.76)" fill="#96d9c9" fill-rule="evenodd"/>
    <path id="Fill-11" d="M1883.02,934.4s-9.324,12.039-14.817,16.763-10.723,9.246-17.723,24.276-6.8,16.75-8.658,20.62-11.626,19.028-12.364,22.052-16.687,17.512-21.623,24.881-13.033,17.652-14.1,23.6l1.442-.03a64.874,64.874,0,0,1,16.947-25.094c12.651-11.651,11.911-14.582,24.277-19.2s23.851-22.661,23.851-22.661,15.86-18.81,17.933-30.021,7.292-20.547,4.829-35.181" transform="translate(-1330.218 -706.154)" fill="#256653" fill-rule="evenodd"/>
    <path id="Fill-12" d="M1867.009,846.151s-2.417,8.77-6.5,13.365-7.281,7.218-9.125,12.788-7.046,19.823-16.674,25.135-15.639,26.534-23.21,31.616-9.447,9.565-10.919,20.959-1.254,27.708-14.732,45.8l-.822-5.471s10.144-15.109,10.878-25.165-1.158-25.949,2.417-32.528-3.318-9.63,3.5-19.255,5.891-13.735,13.943-21.555c0,0,.707-.289,4.069-7.707s19.214-18.762,26.118-22.285,17.045-9.385,21.057-15.7" transform="translate(-1323.887 -642.01)" fill="#256653" fill-rule="evenodd"/>
    <path id="Fill-13" d="M1832.861,986.628s-9.668,10.232-11.539,17.83-2.488,13.989-8.412,23.614-.516,17.835-3.859,23.13-5.083,12.083-6.224,17.272-13.107,20.451-16.338,28.839-1.682,8.775-1.682,8.775,3.985-11.138,6.7-14.494,11.337-15.106,13.814-19.853,6.771-7.161,11.81-15,11.05-14.033,13.538-26.241,10.351-23.876,2.193-43.869" transform="translate(-1323.455 -744.12)" fill="#3c8f7c" fill-rule="evenodd"/>
    <path id="Fill-14" d="M1806.542,1283.229s6.721-14.279,20.67-12.615,21.312,6.208,33.471-2.537,21.792-24.868,25.561-27.154c0,0-4.25-3.608-14.022,2.029s-16.729,10.018-22.39,13.306-8.772-.44-14.35,1.3c-4.67,1.458-11.61,7.2-14.8,10.307a16.786,16.786,0,0,1-3.449,2.6c-1.144.653-2.516,1.456-3.417,2.073-1.805,1.234-8.336,10.5-8.336,10.5l1.062.191" transform="translate(-1338.751 -928.136)" fill="#3c8f7c" fill-rule="evenodd"/>
    <path id="Fill-15" d="M1750.821,1163.616s9.068-17.264,7.948-27-9.622-18.733-7.9-24.288,11.719-19.323,9.1-31.914c0,0-4.356,9.677-6.853,11.474s-18.146,7.746-18.539,20.317,12.107,18.438,14.527,22.729,6.793,5.3,6.274,7.661-1.655,11.105-5.069,19.206l.513,1.819" transform="translate(-1287.206 -812.289)" fill="#3c8f7c" fill-rule="evenodd"/>
    <path id="Fill-16" d="M1795.172,1084.367l11.244-17.829s7.582-14.68,12.9-27.156,13.547-52.753,13.547-52.753-9.668,10.232-11.539,17.83-2.488,13.989-8.412,23.614-.516,17.835-3.859,23.13-5.083,12.083-6.224,17.272-13.107,20.451-16.338,28.839c-1.77,4.594-2.1,6.784-2.046,7.83.683-7.833,10.728-20.776,10.728-20.776" transform="translate(-1323.457 -744.12)" fill="#327f6b" fill-rule="evenodd"/>
    <path id="Fill-17" d="M1846.319,1267.569c-6.285-.2-11.561-1.857-19.924,1.792a61.175,61.175,0,0,0-13.877,8.344s-4.536,4.982-6.566,7.694c-.3.418-.472.666-.472.666l1.062.191s6.721-14.279,20.67-12.615,21.312,6.208,33.471-2.537,21.792-24.867,25.561-27.153c0,0-12.069,5.572-20.02,11.14s-13.618,12.676-19.9,12.479" transform="translate(-1338.751 -931.163)" fill="#327f6b" fill-rule="evenodd"/>
    <path id="Fill-18" d="M1753.115,1091.884c-2.5,1.8-18.146,7.746-18.539,20.317s12.107,18.438,14.527,22.729,6.793,5.3,6.274,7.661-1.655,11.105-5.069,19.206l.224.795a110.9,110.9,0,0,0,4.834-11.646c1.961-6.063,1.554-8.855.732-14.328s-10.8-18.545-12.648-24.63,9.3-12.943,12.318-16.805,4.2-14.773,4.2-14.773-4.356,9.677-6.853,11.474" transform="translate(-1287.206 -812.289)" fill="#327f6b" fill-rule="evenodd"/>
    <path id="Fill-19" d="M1189.89,1564.9c9.237-11.976,59.9-76.148,92.931-86.841,36.461-11.8,2.095,35.077,2.095,35.077s64.686-70.729,88.419-64.352c21.759,5.845,0,49.686,0,49.686s24.507-24.277,54.228-24.277c28.923,0-20.208,86.1-22.857,90.708H1189.89" transform="translate(-891.29 -1079.76)" fill="#96d9c9" fill-rule="evenodd"/>
    <path id="Fill-20" d="M305.058,1581.895a532.59,532.59,0,0,0-108.127-109.556c-.426-.322-1,.421-.572.748A532.15,532.15,0,0,1,302.812,1582.5l2.245-.6" transform="translate(-169.001 -1097.117)" fill="#256653" fill-rule="evenodd"/>
    <path id="Fill-21" d="M263.752,1580.571c.987-.7,3.544-3.357,6.957-4.187a14.483,14.483,0,0,1,7.177-.27,15.612,15.612,0,0,0-7.027-3.878c-4.164-1.218-9.888-.2-11.758,1.456-4.245,2.873-4.585,7.754-2.481,8.658,2.09.964,4.883-.366,7.132-1.778" transform="translate(-211.998 -1169.398)" fill="#256653" fill-rule="evenodd"/>
    <path id="Fill-22" d="M200.089,1524.486c.987-.7,3.545-3.354,6.957-4.187a14.483,14.483,0,0,1,7.177-.27,15.643,15.643,0,0,0-7.027-3.878c-4.165-1.215-9.888-.194-11.758,1.458-4.245,2.87-4.585,7.751-2.481,8.658,2.091.961,4.884-.366,7.132-1.781" transform="translate(-165.723 -1128.632)" fill="#256653" fill-rule="evenodd"/>
    <path id="Fill-23" d="M365.977,1557.8c-.925.576-4.215,1.734-5.727,4.364a10.21,10.21,0,0,0-1.607,6.121c.191.15-2.65-3.52-2.827-7.65-.526-4.1,1.612-8.658,3.711-9.622,3.832-2.535,9.078-.88,9.652,1.308.638,2.2-1.287,4.092-3.2,5.479" transform="translate(-284.959 -1153.434)" fill="#256653" fill-rule="evenodd"/>
    <path id="Fill-24" d="M350.049,1314.858A426.255,426.255,0,0,1,406.793,1450.7l1.812-.486a428.948,428.948,0,0,0-56.524-134.691c-6.132-9.581-12.753-20.951-24.234-24.687-.221-.074-.305.265-.094.344,10.486,3.952,16.56,14.724,22.3,23.682" transform="translate(-264.53 -965.233)" fill="#256653" fill-rule="evenodd"/>
    <path id="Fill-25" d="M377.418,1262.818c-.68,1-3.285,3.611-4.05,7.038a14.5,14.5,0,0,0-.129,7.183,15.662,15.662,0,0,1-4.016-6.951c-1.3-4.138-.389-9.881,1.225-11.785,2.789-4.3,7.661-4.736,8.607-2.649,1,2.07-.269,4.889-1.637,7.164" transform="translate(-294.314 -938.789)" fill="#256653" fill-rule="evenodd"/>
    <path id="Fill-26" d="M355.389,1396.4c.987-.7,3.544-3.357,6.957-4.19a14.555,14.555,0,0,1,7.177-.271,15.672,15.672,0,0,0-7.027-3.878c-4.164-1.215-9.888-.194-11.758,1.458-4.245,2.873-4.585,7.754-2.481,8.658,2.091.964,4.884-.366,7.132-1.778" transform="translate(-278.608 -1035.526)" fill="#256653" fill-rule="evenodd"/>
    <path id="Fill-27" d="M390.324,1455.521c.987-.7,3.545-3.357,6.957-4.187a14.486,14.486,0,0,1,7.177-.271,15.646,15.646,0,0,0-7.027-3.878c-4.164-1.218-9.888-.2-11.758,1.456-4.245,2.873-4.585,7.754-2.481,8.658,2.091.964,4.883-.366,7.132-1.778" transform="translate(-304.001 -1078.502)" fill="#256653" fill-rule="evenodd"/>
    <path id="Fill-28" d="M424.825,1329.505c-.83.882-3.813,3.048-5.109,6.312a14.5,14.5,0,0,0-1.26,7.071,15.646,15.646,0,0,1-2.87-7.494c-.629-4.293,1.174-9.821,3.068-11.444,3.432-3.807,8.312-3.471,8.918-1.262.665,2.2-1.037,4.785-2.747,6.817" transform="translate(-328.371 -987.205)" fill="#256653" fill-rule="evenodd"/>
    <path id="Fill-29" d="M467.338,1392.258c-1.181.625-5.306,1.761-7.38,4.848a12.527,12.527,0,0,0-2.491,7.35c.221.2-2.94-4.531-2.8-9.6-.292-5.061,2.713-10.455,5.363-11.455,4.905-2.775,11.181-.3,11.7,2.425.593,2.745-1.924,4.9-4.385,6.429" transform="translate(-356.854 -1031.645)" fill="#256653" fill-rule="evenodd"/>
    <path id="Fill-30" d="M520.122,1492.655c-1.269.418-5.527.844-8.091,3.54a12.526,12.526,0,0,0-3.691,6.825c.184.235-2.136-4.963-1.15-9.933.563-5.039,4.433-9.849,7.213-10.389,5.3-1.909,11.072,1.587,11.122,4.359.123,2.8-2.721,4.5-5.4,5.6" transform="translate(-394.871 -1104.307)" fill="#256653" fill-rule="evenodd"/>
    <path id="Fill-31" d="M298.591,1294.5a11.131,11.131,0,0,1,3.932-2.781,8.569,8.569,0,0,1,4.234-.475,9.3,9.3,0,0,0-4.327-1.989c-2.517-.535-5.858.32-6.892,1.377-2.385,1.887-2.373,4.788-1.089,5.23,1.279.481,2.873-.429,4.141-1.363" transform="translate(-239.786 -963.973)" fill="#256653" fill-rule="evenodd"/>
    <path id="Fill-32" d="M318.141,1254.336a11.144,11.144,0,0,0,.2,4.812,8.578,8.578,0,0,0,2.209,3.641,9.252,9.252,0,0,1-4.215-2.212c-1.962-1.666-3.324-4.834-3.117-6.3.037-3.042,2.343-4.8,3.478-4.056,1.159.721,1.413,2.537,1.448,4.113" transform="translate(-254.037 -935.598)" fill="#256653" fill-rule="evenodd"/>
    <path id="Fill-33" d="M163.262,1476.57a11.161,11.161,0,0,1,3.932-2.78,8.643,8.643,0,0,1,4.234-.475,9.286,9.286,0,0,0-4.326-1.985c-2.517-.538-5.858.317-6.892,1.376-2.385,1.885-2.373,4.788-1.089,5.23,1.279.478,2.873-.432,4.141-1.366" transform="translate(-141.417 -1096.32)" fill="#256653" fill-rule="evenodd"/>
    <path id="Fill-34" d="M186.775,1435.62a11.149,11.149,0,0,0-.2,4.813,8.585,8.585,0,0,0,1.9,3.81,9.28,9.28,0,0,1-4.02-2.551c-1.819-1.819-2.917-5.088-2.591-6.533.286-3.026,2.728-4.594,3.8-3.755,1.1.814,1.2,2.644,1.106,4.217" transform="translate(-158.538 -1067.255)" fill="#256653" fill-rule="evenodd"/>
    <path id="Fill-35" d="M220.539,1737.18c26.986,2.958,52.119,14.869,76.313,26.484,16.316,7.833,15.493,10.064,18.816,11.231a.667.667,0,0,0,.815-.912c-1.279-2.534-4.63-4.247-6.963-5.7a89.879,89.879,0,0,0-8.429-4.591c-6.158-2.991-12.477-5.681-18.755-8.409-12.77-5.547-25.748-10.766-39.24-14.3a138.059,138.059,0,0,0-22.54-4.02.111.111,0,0,0-.018.221" transform="translate(-186.616 -1289.522)" fill="#256653" fill-rule="evenodd"/>
    <path id="Fill-36" d="M280.753,1687.1c-.176,1.106-1.329,4.321-.618,7.5a13.4,13.4,0,0,0,2.725,6.069,14.463,14.463,0,0,1-6.108-4.239c-2.721-2.958-4.225-8.128-3.623-10.362.641-4.7,4.553-6.992,6.168-5.615,1.659,1.338,1.7,4.2,1.455,6.651" transform="translate(-224.819 -1248.155)" fill="#256653" fill-rule="evenodd"/>
    <path id="Fill-37" d="M367.8,1718.261c-.176,1.106-1.329,4.321-.618,7.5a13.439,13.439,0,0,0,2.725,6.069,14.492,14.492,0,0,1-6.108-4.239c-2.721-2.958-4.225-8.131-3.623-10.362.641-4.706,4.552-6.992,6.168-5.618,1.659,1.341,1.7,4.206,1.455,6.653" transform="translate(-288.09 -1270.807)" fill="#256653" fill-rule="evenodd"/>
    <path id="Fill-38" d="M456.243,1757.682c-.176,1.106-1.329,4.321-.618,7.5a13.4,13.4,0,0,0,2.725,6.069,14.463,14.463,0,0,1-6.108-4.239c-2.721-2.958-4.225-8.128-3.622-10.362.64-4.7,4.552-6.992,6.168-5.618,1.659,1.341,1.7,4.206,1.455,6.653" transform="translate(-352.38 -1299.461)" fill="#256653" fill-rule="evenodd"/>
    <path id="Fill-39" d="M256.187,1762.033c.489-.915,1.433-3.928,3.729-5.869a12.406,12.406,0,0,1,5.4-2.952,13.4,13.4,0,0,0-6.867-.284c-3.656.661-7.65,3.632-8.452,5.613-2.154,3.824-.548,7.694,1.41,7.582,1.97-.06,3.6-2.147,4.784-4.089" transform="translate(-207.35 -1300.879)" fill="#256653" fill-rule="evenodd"/>
    <path id="Fill-40" d="M346.727,1794.076c.488-.912,1.432-3.925,3.729-5.869a12.415,12.415,0,0,1,5.4-2.95,13.378,13.378,0,0,0-6.867-.287c-3.656.661-7.651,3.633-8.452,5.615-2.154,3.824-.548,7.694,1.41,7.582,1.97-.063,3.6-2.147,4.784-4.091" transform="translate(-273.162 -1324.172)" fill="#256653" fill-rule="evenodd"/>
    <path id="Fill-41" d="M194.066,1739.743a10.293,10.293,0,0,1,3.117-3.193,7.958,7.958,0,0,1,3.778-1.142,8.636,8.636,0,0,0-4.275-1.087c-2.383-.065-5.284,1.273-6.049,2.409-1.858,2.117-1.36,4.76-.116,4.949,1.245.221,2.545-.874,3.545-1.936" transform="translate(-164.062 -1287.6)" fill="#256653" fill-rule="evenodd"/>
    <path id="Fill-42" d="M204.724,1702.1a10.324,10.324,0,0,0,.986,4.351,7.954,7.954,0,0,0,2.623,2.95,8.594,8.594,0,0,1-4.211-1.311c-2.066-1.188-3.838-3.845-3.895-5.217-.476-2.775,1.33-4.766,2.489-4.277,1.177.462,1.713,2.076,2.008,3.5" transform="translate(-171.866 -1261.581)" fill="#256653" fill-rule="evenodd"/>
    <g id="_2779865" data-name="2779865" transform="translate(97.614 91.302)">
      <g id="Group" transform="translate(0 5.461)">
        <circle id="Oval" cx="159.984" cy="159.984" r="159.984" transform="translate(35.561 35.561)" fill="url(#linear-gradient-2)"/>
        <path id="Path" d="M810.637,138.6,721.24,228,695.421,296.36a4.333,4.333,0,0,0,.815,4.357l138.442,138.4a194.991,194.991,0,0,0,61.707-142.551C896.385,229.268,862.389,173.782,810.637,138.6Z" transform="translate(-505.296 -101.018)" fill="url(#linear-gradient-3)"/>
        <g id="Group_221" data-name="Group 221" transform="translate(0 0)">
          <path id="Shape" d="M195.545.994C87.55.994,0,88.545,0,196.539S87.55,392.083,195.545,392.083s195.545-87.55,195.545-195.545S303.538.994,195.545.994Zm0,345A149.452,149.452,0,1,1,345,196.539,149.454,149.454,0,0,1,195.545,345.99Z" transform="translate(0 -0.994)" fill="url(#linear-gradient-4)"/>
          <path id="Shape-2" data-name="Shape" d="M443.254,341.777a102.47,102.47,0,1,0,102.47,102.47,102.474,102.474,0,0,0-102.47-102.47Zm0,155.69a53.219,53.219,0,1,1,53.219-53.219A53.215,53.215,0,0,1,443.254,497.468Z" transform="translate(-247.709 -248.703)" fill="url(#linear-gradient-4)"/>
          <circle id="Oval-2" data-name="Oval" cx="20.28" cy="20.28" r="20.28" transform="translate(175.265 175.265)" fill="url(#linear-gradient-6)"/>
        </g>
      </g>
      <g id="Group-2" data-name="Group" transform="translate(189.968 43.14)">
        <path id="Path-2" data-name="Path" d="M395.559,53.04C378.941,31.931,359.843,13.8,340.937.954L309.981,31.912a149.468,149.468,0,0,1,22.373,236.93l32.616,32.61A195.58,195.58,0,0,0,395.559,53.04Z" transform="translate(-225.47 -0.954)" fill="url(#linear-gradient-7)"/>
        <path id="Path-3" data-name="Path" d="M102.619,240.882C89.033,254.469,78.75,264.743,78.75,264.743l-6.489,17.189a53.229,53.229,0,0,1,19.1,93.126l34.934,34.927a102.464,102.464,0,0,0-23.675-169.1Z" transform="translate(-52.676 -175.353)" fill="url(#linear-gradient-8)"/>
        <path id="Path-4" data-name="Path" d="M8.358,505.45.818,525.41a4.334,4.334,0,0,0,.811,4.355l13.885,13.886a20.281,20.281,0,0,0-7.155-38.2Z" transform="translate(-0.553 -367.663)" fill="url(#linear-gradient-9)"/>
      </g>
      <g id="Group-3" data-name="Group" transform="translate(189.966)">
        <path id="Path-5" data-name="Path" d="M35.3,463.986,15.043,520.649,12.535,536.4c-1.25,3.494,18.122-.141,18.122-.141L87.332,516c14.41-14.407-37.618-66.424-52.028-52.017Z" transform="translate(-9.218 -335.448)" fill="url(#linear-gradient-10)"/>
        <path id="Path-6" data-name="Path" d="M273.711,54.965,148.085,180.554a16.726,16.726,0,0,0-6.362-6.2c-3.789-2.1-9.714-.949-13.816.295a1.731,1.731,0,0,1-2.061-2.373.009.009,0,0,0,.009-.009,16.841,16.841,0,0,0,.6-1.585l.228-.769a.087.087,0,0,0,.009-.047,16.017,16.017,0,0,0,.456-2.5c.029-.275.047-.56.067-.836q.035-.688.013-1.376a16.228,16.228,0,0,0-3.147-9.1,16.5,16.5,0,0,0-3.513-3.512,16.256,16.256,0,0,0-10.483-3.133c-.275.019-.561.038-.836.066a15.831,15.831,0,0,0-2.5.456.087.087,0,0,0-.047.009l-.769.228c-.275.086-.541.18-.807.285s-.513.2-.769.313c-.009,0-.009,0-.019.009a1.731,1.731,0,0,1-2.374-2.06c1.244-4.1,2.393-10.016.295-13.8a16.61,16.61,0,0,0-6.2-6.37L221.675,2.941a10.059,10.059,0,0,1,14.215,0l7.416,7.415L266.3,33.34l7.416,7.415a10.054,10.054,0,0,1,0,14.211Z" transform="translate(-69.972 0)" fill="url(#linear-gradient-11)"/>
        <path id="Path-7" data-name="Path" d="M284.444,60.9,144.014,201.3a1.7,1.7,0,0,1-.019-1.462.009.009,0,0,0,.009-.009,37.764,37.764,0,0,0,1.292-4.9c.038-.285.057-.56.067-.836a16.248,16.248,0,0,0-3.134-10.481,16.5,16.5,0,0,0-3.513-3.512,16.256,16.256,0,0,0-10.483-3.133c-.275.009-.55.029-.836.066a14.273,14.273,0,0,0-2.5.456.087.087,0,0,0-.047.009c-.257.066-2.089.712-2.345.826-.009,0-.009,0-.019.009a1.711,1.711,0,0,1-1.463-.019l140.428-140.4Z" transform="translate(-88.121 -27.558)" fill="url(#linear-gradient-12)"/>
        <path id="Path-8" data-name="Path" d="M15.391,684.691A36.21,36.21,0,0,0,6.37,678.1L.811,693.648a4.4,4.4,0,0,0,5.62,5.619l15.552-5.558a36.19,36.19,0,0,0-6.592-9.018Z" transform="translate(-0.545 -492.898)" fill="url(#linear-gradient-13)"/>
      </g>
    </g>
    <path id="Fill-52" d="M1823.75,1307.832c0,1.24.464,2.242,1.035,2.242s1.035-1,1.035-2.242-.464-2.242-1.035-2.242-1.035,1.005-1.035,2.242" transform="translate(-1352.032 -975.968)" fill="#f7a491" fill-rule="evenodd"/>
    <path id="Fill-53" d="M1764.7,1824.089a63.417,63.417,0,0,0,.325-8.319h6.763c-.7,4.848-1.254,8.62-1.254,8.62l.169,1.532,0,4.523H1755.91a66.676,66.676,0,0,0,7.53-4.187,3.026,3.026,0,0,0,1.256-2.169" transform="translate(-1302.72 -1346.808)" fill="#f7a491" fill-rule="evenodd"/>
    <path id="Fill-54" d="M1888.446,1827.074l-1.967-5.634h5.148c.268,3.616.366,6.058.366,6.058l1.308,3.7,1.33,4.4s-4.378,1.128-6.675-.139l.254-4.384.235-4.007" transform="translate(-1397.629 -1350.929)" fill="#f7a491" fill-rule="evenodd"/>
    <path id="Fill-55" d="M1789.87,1368.466c1.783-2.442,9.149-9.51,9.969-9.5,2.384.041,10.214.044,11.744.822l-.074,13.457c-.249,1.13-5.654,18.725-5.34,22.578l-.038.036a10.831,10.831,0,0,1-15.819-.762,88.63,88.63,0,0,0-.62-10.207c-1-7.625-4.258-10.367.178-16.428" transform="translate(-1325.755 -1014.769)" fill="#f7cc7f" fill-rule="evenodd"/>
    <path id="Fill-56" d="M1826.553,1326.491a39.5,39.5,0,0,0,.238,6.847c.448,1.885,1.041,2.026-2.786,2.6-1.5.227-2.955.563-2.955.563s.393-2.767.453-3.933c.1-1.92-.442-7.855-.442-7.855l5.492,1.781" transform="translate(-1350.069 -989.866)" fill="#f7a491" fill-rule="evenodd"/>
    <path id="Fill-57" d="M1823.666,1328.962a6.831,6.831,0,0,1-2.2.781c-.131-2.343-.374-5.034-.374-5.034l5.239,1.7a6.885,6.885,0,0,1-2.663,2.554" transform="translate(-1350.098 -989.866)" fill="#f47458" fill-rule="evenodd"/>
    <path id="Fill-58" d="M1892.147,1856.68a7.324,7.324,0,0,0,5.069.068l.292.784,1.112,3.714s-4.433,1.1-6.73-.167l.257-4.4" transform="translate(-1401.561 -1376.545)" fill="#e25a44" fill-rule="evenodd"/>
    <path id="Fill-59" d="M1768.116,1858.566h-15.379c-.568-.052-.707-.519-.511-.8.407-.59,2.2-1.024,4.217-1.964,3.537.371,10.96-2.07,11.52-2.89.322,1.642.47,5.585.153,5.656" transform="translate(-1299.981 -1373.804)" fill="#e25a44" fill-rule="evenodd"/>
    <path id="Fill-60" d="M1814.9,1494.177l9.013,64.12,8.207,29.562h8.931s-2.073-23.819-6.514-32.255c0,0-1.942-22.611-3.881-36.439-.29-2.068,1.144-7.432.77-8.819a128.027,128.027,0,0,0-5.413-16.425l-11.113.257" transform="translate(-1345.599 -1112.861)" fill="#355389" fill-rule="evenodd"/>
    <path id="Fill-61" d="M1790.181,1519.967l-2.087,24.63s2.133,14.077.669,23.417-3.4,17.911-3.4,17.911h-8.207l-1.631-46.512s-3.157-25.274-2.065-32.13,6.407-16.024,6.407-16.024l12.913.59s3.5,12.547,2.909,16.759c-.44,3.127-5.506,11.359-5.506,11.359" transform="translate(-1315.309 -1110.928)" fill="#466eb6" fill-rule="evenodd"/>
    <path id="Fill-62" d="M1831.688,1320.659c9.758-2.928,7.147-11.531,7.093-11.2.027-.268.948-1.349,1.4-2.275,1.9-3.859-.6-8.5-3.469-10.111,1.9-4.905.014-9.608-3.561-11.569a14.385,14.385,0,0,1-4.545-4.026c-2.707-3.613-7.631-7.248-13.552-6.063-5.859,1.5,1.986,4.894,1.21,10.529-.393,2.857.737,2.447,2.5,4.744-2.54,4.465-1.073,11.96,2.824,15.36-1.909,8.046.139,17.605,10.1,14.615" transform="translate(-1344.12 -953.866)" fill="#184655" fill-rule="evenodd"/>
    <path id="Fill-63" d="M1814.22,1281.709c1.155,4.755-5.085,8.207-10.026,8.333-3.212.082-4.687-.249-5.206-3.632-.841-5.487,1.417-8.833,4.586-10.217,4.089-1.789,9.7,1.595,10.646,5.517" transform="translate(-1333.904 -954.242)" fill="#184655" fill-rule="evenodd"/>
    <path id="Fill-64" d="M1808.382,1285.416a6.484,6.484,0,0,1,3.329,2.922c1.158,2.193.582,9.218-4.236,11.534s-7.03-2.944-6.68-6.825,1.745-8.958,7.587-7.631" transform="translate(-1335.32 -961.147)" fill="#f7a491" fill-rule="evenodd"/>
    <path id="Fill-65" d="M1808.549,1325.432l-3.419-.052a1.511,1.511,0,0,0,1.562,1.39c1.833.082,1.857-1.338,1.857-1.338" transform="translate(-1338.497 -990.353)" fill="#fff" fill-rule="evenodd"/>
    <path id="Fill-66" d="M1821.159,1291.433c.713-3.627.431-6.38-2.147-7.707s-4.782-2.644-7.09-.257l-.522.292s4.356,1.2,4.6,3.518,2.557,5.061,2.2,6.2-.768,3.4-.768,3.4l.953-.784s2.059-1.03,2.772-4.659" transform="translate(-1343.055 -958.926)" fill="#184655" fill-rule="evenodd"/>
    <path id="Fill-67" d="M1830.27,1307.254c-.358,1-.087,2.007.609,2.248s1.548-.38,1.909-1.382.088-2.01-.606-2.248-1.551.38-1.912,1.382" transform="translate(-1356.656 -976.135)" fill="#f7a491" fill-rule="evenodd"/>
    <path id="Fill-68" d="M449.732,792.063l7.309-46.583h44.37l-7.322,46.583Zm91.351-298.971-7.323,46.584H489.328l7.308-46.584ZM509.345,695l-7.323,46.583H457.651L464.959,695Zm7.934-50.478-7.323,46.583H465.57l7.308-46.583Zm-35.87-54.371,7.308-46.584h44.431l-7.322,46.584Zm43.8,3.894-7.322,46.582h-44.4l7.308-46.582Zm-76.092,201.91h44.355L482.89,863.3h4.576l59.7-379.824h-4.576l-.9,5.723H497.247l.9-5.723h-4.576L433.808,863.3h4.576l10.737-67.343Z" transform="translate(-341.709 -378.388)" fill="#f7cc7f" fill-rule="evenodd"/>
    <path id="Fill-69" d="M1168.981,208.362c-.047.17-.418,1.339-.983,3.08l5.932,1.2c.063-.971.123-1.782.194-2.37.486-4.115,2.42-5.232,3.414-7.517s4.856-3.734,4.378-4.509-4.07,2.364-4.932,2.027,3.075-5.058,2.6-5.687c-.871-1.159-4.616,4.951-5.055,4.447s3.119-6.954,1.693-7.036-3,6.98-3.75,6.669,2.07-6.507.636-7.431c-.765-.494-3.485,11.026-4.7,11.69s-2.922-3.877-4.078-3.492,4.848,8.219,4.646,8.931" transform="translate(-872.607 -165.95)" fill="#f79c8d" fill-rule="evenodd"/>
    <path id="Fill-70" d="M958.931,116.63c-.026.175-.172,1.392-.375,3.211l-5.9-1.357c.344-.91.624-1.673.8-2.238,1.252-3.95-.048-5.765-.012-8.257s-2.882-5.4-2.129-5.914,2.734,3.832,3.659,3.882-.716-5.876-.025-6.254c1.273-.7,2.163,6.415,2.772,6.136s.028-7.621,1.359-7.108-.143,7.6.667,7.623.8-6.782,2.483-7.033c.9-.134-1.374,11.481-.543,12.587s4.26-2.327,5.153-1.5-7.806,5.487-7.916,6.219" transform="translate(-717.789 -98.707)" fill="#f79c8d" fill-rule="evenodd"/>
    <path id="Fill-71" d="M1123.215,259.919s-7.066-1.691-7.134-1.124c-1.486,12.433-2.152,16.929-2.4,17.058-.858.441-12.211-9.942-14.235-10.645a8.434,8.434,0,0,0-3.032-.251c-2.409.071-2.884.08-2.884.08l-.087.006.011,2.265c2.715,2.441,8.926,39.417,9.45,39.392.584-.027,12.861,3.062,12.646,2.028-.035-.168-8.325-6.95-10.676-16.738-.789-3.286-1.177-6.824-1.606-9.921,2.729,1.368,13.383,6.611,15.071,5.918,5.252-2.155,4.881-28.069,4.881-28.069" transform="translate(-821.183 -214.987)" fill="#f7cc7f" fill-rule="evenodd"/>
    <path id="Fill-72" d="M1279.87,492.971s11.424,8.947,11.8,10.533c.549,2.285,11.01-.719,8.486-1.184-.579-.107-2.436-.578-2.589-.66-.817-.436-10.982-12.684-10.982-12.684l-6.719,3.994" transform="translate(-956.695 -382.387)" fill="#f7a491" fill-rule="evenodd"/>
    <path id="Fill-73" d="M1335.389,536.253l-7.292-.594a10.336,10.336,0,0,1-6.091,1.806,9.311,9.311,0,0,0-.336,3.969c.052.369.115,1.484.486,1.459,1.346-.091,4.938-.985,9.026-1.8,0,0,5.5-1.164,8.672-3.064s-4.465-1.774-4.465-1.774" transform="translate(-987.019 -416.319)" fill="#f7cc7f" fill-rule="evenodd"/>
    <path id="Fill-74" d="M1084.8,409.9a49.92,49.92,0,0,0,17.613-.759c10.706-2.5,22.54-4.819,26.009-2.8,2.791,1.623,20.224,27.963,20.224,27.963l-6.732,4.912-19.195-21.493s-24.488,9.035-29.988,8.034c-12.525-2.281-12.7-12.284-7.931-15.855" transform="translate(-812.801 -321.763)" fill="#355389" fill-rule="evenodd"/>
    <path id="Fill-75" d="M1186.014,568.3s-.508,13.815-.825,16.154,5.864,9.345,5.075,6.9c-.183-.561-.65-2.419-.65-2.593,0-.926,2.292-16.685,2.292-16.685l-5.891-3.781" transform="translate(-887.865 -440.049)" fill="#f7a491" fill-rule="evenodd"/>
    <path id="Fill-76" d="M1178.6,639.443l-4.561-7.416a10.351,10.351,0,0,1-4.485-4.5,9.353,9.353,0,0,0-3.652,1.59c-.3.222-2.341,1.715-2.2,2.06.522,1.269,3.3,3.986,6.347,6.954a81.568,81.568,0,0,0,7.492,5.369c3.179,1.891,1.057-4.056,1.057-4.056" transform="translate(-872.249 -483.095)" fill="#f7cc7f" fill-rule="evenodd"/>
    <path id="Fill-77" d="M1111.017,414.671c-2.925-3.9-26.531-7.6-26.531-7.6l-6.582-12.651-14.555,8.975s1.456,11.582,2.548,14.677c1.453,4.124,11.236,4.334,17.209,4.273,5.5-.057,15.538,1.064,15.538,1.064l-3.395,29.959s6.675,1.519,8.551,1.274c.21-.028,10.854-35.114,7.216-39.966" transform="translate(-799.311 -313.652)" fill="#466eb6" fill-rule="evenodd"/>
    <path id="Fill-78" d="M1070.446,282.058l-8.21.459s-.188.058-.246.068c-.669.124-.063,24.055.535,32.992s1.805,12.693,1.805,12.693,11.138-1.977,14.557-3.3c1.417-.551,4.851-4.843,4.851-4.843a36.013,36.013,0,0,1-5.274-12.374c-1.363-5.908-3.042-16.379-4-18.565a31.166,31.166,0,0,0-4.015-7.126" transform="translate(-798.11 -231.981)" fill="#184655" fill-rule="evenodd"/>
    <path id="Fill-79" d="M1063.9,254.2l-.232,7.251s5.315,9.159,8.043,7.883c2.292-1.071.259-8.038.259-8.038s-.4-1.6-.948-3.433a13.231,13.231,0,0,1-.68-3.691c.057-2.478-6.443.029-6.443.029" transform="translate(-799.544 -210.918)" fill="#f7a491" fill-rule="evenodd"/>
    <path id="Fill-80" d="M1070.9,254.174c.057-2.478-6.443.029-6.443.029l-.022.708a3.594,3.594,0,0,0,.727.825,8.94,8.94,0,0,0,6.328,1.822,12.526,12.526,0,0,1-.59-3.384" transform="translate(-800.103 -210.918)" fill="#f47458" fill-rule="evenodd"/>
    <path id="Fill-81" d="M1070.986,196.643s2.709,4.083,2.912,7.52a17.853,17.853,0,0,1-.525,5.782l-8.693-10.391,6.306-2.911" transform="translate(-800.278 -169.895)" fill="#f7cc7f" fill-rule="evenodd"/>
    <path id="Fill-82" d="M1094.939,216.136c.123,1.2-.347,2.237-1.046,2.308s-1.365-.846-1.486-2.049.344-2.237,1.043-2.308,1.365.846,1.488,2.05" transform="translate(-820.418 -182.571)" fill="#f48c7f" fill-rule="evenodd"/>
    <path id="Fill-83" d="M1054.189,204.181c-.2-.043-.177,9.961,2.72,12.315s7.945,2.56,9.42.19c1.63-2.623.079-13.163-4.233-15.4s-7.907,2.9-7.907,2.9" transform="translate(-792.6 -172.857)" fill="#f7a491" fill-rule="evenodd"/>
    <path id="Fill-84" d="M1037.642,184.628a16.067,16.067,0,0,0-4.782,6.809c-1.841,4.242,1.811,8.638,4.875,10.385s3.318,3.859,3.318,3.859l.126-1.3a3.213,3.213,0,0,0-.038-1.2,5.525,5.525,0,0,0-.434-1.056c-.262-.557-1.1-2.468-1.426-2.972-.863-1.33-1.032-1.617-.606-2.881.328-.973-.052-3.117.453-4.72l4.124-.89a8.632,8.632,0,0,0,3.884-2.124c3.742-4.317-3.654-9.13-9.494-3.911" transform="translate(-776.787 -159.507)" fill="#f7cc7f" fill-rule="evenodd"/>
    <path id="Fill-85" d="M1052.056,233.269c.508,1.1.4,2.227-.235,2.523s-1.568-.355-2.076-1.453-.4-2.227.235-2.522,1.568.355,2.076,1.453" transform="translate(-789.188 -195.41)" fill="#f7a491" fill-rule="evenodd"/>
    <path id="Fill-86" d="M978.536,194.676s-8.142-.379-10.242-1.33c-1.273-.576-11.735-9.006-11.735-9.006l.117-22.569-7.357-.56s-3.815,24.946-2.493,27.677c1.364,2.82,16.678,14.429,19.739,19.467,1.764,2.9,5.443,42.372,6,42.727,3.963,2.062,16.2,4.121,15.909,2.87-7.964-34.568-9.939-59.278-9.939-59.278" transform="translate(-714.409 -144.141)" fill="#f7cc7f" fill-rule="evenodd"/>
    <path id="Fill-87" d="M1076.39,242.859l4.739-1.5a2.174,2.174,0,0,1-1.6,2.557c-2.518.88-3.135-1.052-3.135-1.052" transform="translate(-808.79 -202.394)" fill="#fff" fill-rule="evenodd"/>
    <path id="Fill-88" d="M1796.23,500.612a.975.975,0,0,0,.606-1.417c-.5-.816-.989-1.641-1.48-2.463-1.087-1.815-1.185-1.853-1.1-2.06.213-.494,1.142-.268,1.477-.154a11.507,11.507,0,0,0,2.215.8c1.541.2,2.663-.982,1.978-2.474-.628-1.366-1.336-2.707-2.054-4.036,1.652.338,3.3.723,4.952,1.038a.666.666,0,0,0,.754-.955c-.527-1.208-2.081-4.786-2.595-5.966-.134-.3-.92-1.653-.647-1.912.243-.232,1.377.082,1.636.12,1.437.209,1.947.263,6.634.835a.78.78,0,0,0,.691-1.159c-3.272-4.574-2.7-4.99-3.867-5.631a.37.37,0,0,0-.552.3c-.1.688-.079.86,1.153,3.041q.479.846,1,1.667c-5.681-.8-7.093-1.142-7.86.133-.533.885-.276,1.125,2.687,7.889-1.712-.444-3.444-.782-5.178-1.155a.758.758,0,0,0-.86,1.088c2.27,4.881,2.529,4.916,2.611,5.4,0,.013.3.082-.145.042-.754-.068-2.144-1.165-3.589-1a2.288,2.288,0,0,0-2.193,2.571c.167.8.467,1.089,1.98,3.778a19.664,19.664,0,0,0-4.427,1.448,3.047,3.047,0,0,0-1.431,1.161.814.814,0,0,0,.672,1.224c1.682-.095,2.414-1.4,6.932-2.16" transform="translate(-1326.415 -372.32)" fill="#f7cc7f" fill-rule="evenodd"/>
    <path id="Fill-89" d="M1883,588.44a24.345,24.345,0,0,1-.273-4.3c.005-.283-.044-.811.243-.988.691-.427,1.72.758,4.37,1.337,1.15.251,3.507.872,4.009-.673a8.7,8.7,0,0,0,.088-2.612c0-.624.022-1.247.03-1.87,4.3,1.214,4.056,1.466,5.031,1.04a.548.548,0,0,0,.235-.735c-.56-.885-.445-.632-5.853-2.217a.85.85,0,0,0-1.1.758c0,.844.224,4.665.177,5.138-.044-.03-.251.009-.3.007a13.954,13.954,0,0,1-4.935-1.385c-1.335-.551-3.149-.561-3.567,1.148a16.886,16.886,0,0,0,0,4.315c-2.619-.838-5.233-1.7-7.855-2.516a.934.934,0,0,0-1.21.835c.115,1.709.175,3.416.218,5.127a15.811,15.811,0,0,1-4.315-2.2c-.972-.7-2.209.66.366,2.263a15.282,15.282,0,0,0,4.624,2.069.939.939,0,0,0,1.213-.837c.005-1.694-.066-3.391-.169-5.083,2.616.8,5.247,1.578,7.866,2.382a.865.865,0,0,0,1.1-.993" transform="translate(-1383.352 -446.647)" fill="#f47458" fill-rule="evenodd"/>
    <path id="Fill-90" d="M1900.452,697.816a.939.939,0,0,0,.836.942,20.623,20.623,0,0,0,7.2.245c1.256-.214.808-2.085-.421-1.952a25.068,25.068,0,0,1-5.861.069,19.928,19.928,0,0,1,.587-4.274.963.963,0,0,0-.838-1.229c-1.554.043-7.429.384-7.481.447a.288.288,0,0,0,0-.156c-.115-.625.344-2.748.3-3.718-.055-1.089-1.5-1.484-2.379-1.569-1.778-.171-3.75,1.112-5.481.422-1.666-.664.208-3.277-1.136-5.319-1.035-1.574-2.816-1.1-5.624-.559a2.1,2.1,0,0,0-1.71.949.48.48,0,0,0,.055.559c.847.786,1.86.432,4.427.007.328-.054.879-.248,1.172-.006.97.8-.451,3.017.7,4.882.9,1.453,2.685,1.72,4.2,1.537,1.191-.143,2.66-.836,3.868-.407-.066,1.034-.161,2.077-.148,3.108a1.816,1.816,0,0,0,1.726,2.006,30.255,30.255,0,0,0,3.813-.126c.844-.039,1.685-.074,2.529-.12a22.652,22.652,0,0,0-.33,4.262" transform="translate(-1391.74 -521.711)" fill="#3cb4c5" fill-rule="evenodd"/>
    <path id="Fill-91" d="M1671.374,482.121c-6.719-5.51-10.141-.552-8.207,1.735a1.868,1.868,0,0,0,3.043-.05c.339-.508-.161-1.348-.795-1.15-.524.164-.647-.431-.09-.661.748-.31,1.658.239,2.3.581,1.5.8,3.469,1.81,3.725,3.7.38,2.816-2.483,5.8-6.727,4.154-6.121-2.369-5.831-12.384.661-14.047a9.2,9.2,0,0,1,9.5,3.5c.423.568,1.18-.1.95-.666-1.732-4.313-7.238-5.957-11.414-4.5-4.282,1.5-6.416,6.014-5.776,10.377.672,4.576,4.583,8.383,9.357,7.894,5.236-.536,8.172-7.018,3.474-10.871" transform="translate(-1231.865 -371.645)" fill="#3cb4c5" fill-rule="evenodd"/>
    <path id="Fill-92" d="M1914.628,785.68c-1.1-.766-3.357-1.237-4.094.255a1.242,1.242,0,0,0,.656,1.814c.789.259,1.527-.165,2.136.565a1.662,1.662,0,0,1-.271,2.086c-1.453,1.711-4.553,1.186-6.287.237a4.211,4.211,0,0,1-.265-7.344,9.48,9.48,0,0,1,3.064-.965c.579-.135.86-1.056.246-1.366-2.363-1.193-5.277.338-6.675,2.347a6.735,6.735,0,0,0-.049,7.261,8.669,8.669,0,0,0,7.352,3.565c5.735-.063,7.74-5.971,4.187-8.453" transform="translate(-1408.947 -594.319)" fill="#3c8f7c" fill-rule="evenodd"/>
    <path id="Fill-93" d="M1512.187,1440.486a4.91,4.91,0,0,1-.5,1.213,46.108,46.108,0,0,1-4.791,6.372l-2.586-5.831s.421-1.833,1.153-4.449c2.5.653,4.88,1.03,6.724,2.7" transform="translate(-1119.837 -1072.061)" fill="#f8a492" fill-rule="evenodd"/>
    <path id="Fill-94" d="M1478.81,1374.874s14.437,6.216,14.9,6.1c.3-.077,5.921-9.485,5.981-18.334.027-4.086-4.214-9-8.95-8.03-2.384.489-2.346,1.153-5.875,6.276s-6.061,13.989-6.061,13.989" transform="translate(-1101.301 -1011.508)" fill="#466eb6" fill-rule="evenodd"/>
    <path id="Fill-95" d="M1411.142,1837.24l.344,5.684a30.983,30.983,0,0,1,.623,3.152c0,2.458-11.673-2.087-9.057-3.176.235-.1,1.478-.844,1.554-1.682.12-1.289.423-3.9.423-3.9l6.112-.079" transform="translate(-1045.957 -1362.414)" fill="#f7a491" fill-rule="evenodd"/>
    <path id="Fill-96" d="M1378.4,1857.6s2.742.754,4.146.942,3.253-1.4,4.247-.97c1.093.472,1.049,4.708,1.049,4.708s-14.7,1.2-18.829-.041c-1.639-.494,3.785-2.887,9.387-4.64" transform="translate(-1021.274 -1377.142)" fill="#3c8f7c" fill-rule="evenodd"/>
    <path id="Fill-97" d="M1498.575,1837.24l.344,5.684a30.95,30.95,0,0,1,.623,3.152c0,2.458-11.676-2.087-9.059-3.176.238-.1,1.846-1.4,1.923-2.237.12-1.292.057-3.343.057-3.343l6.112-.079" transform="translate(-1109.508 -1362.414)" fill="#f7a491" fill-rule="evenodd"/>
    <path id="Fill-98" d="M1465.85,1857.6s2.739.754,4.143.942,3.256-1.4,4.247-.97c1.093.472,1.139,4.708,1.139,4.708s-14.765,1.407-18.919-.041c-1.612-.563,3.785-2.887,9.39-4.64" transform="translate(-1084.845 -1377.142)" fill="#3c8f7c" fill-rule="evenodd"/>
    <path id="Fill-99" d="M1495.87,1319.765l1.325,8.371s-5.045,4.048-7.983,3.2c-2.466-.718-.776-3.944-.776-3.944s1.314-4.468.91-6.809,6.525-.814,6.525-.814" transform="translate(-1107.887 -985.915)" fill="#f7a491" fill-rule="evenodd"/>
    <path id="Fill-100" d="M1498.488,1322.3a20.546,20.546,0,0,1-5.708,1.609,11.078,11.078,0,0,0,.134-3.324c-.186-1.082,1.191-1.338,2.726-1.3,2.007.172,3.8.486,3.8.486l.254,1.609a4.145,4.145,0,0,1-1.2.92" transform="translate(-1111.456 -985.917)" fill="#fe875e" fill-rule="evenodd"/>
    <path id="Fill-101" d="M1500.494,1273.744c.208,0-1.994,9.352-5.4,10.96s-8.489.77-9.442-1.748c-1.054-2.786,2.791-12.326,7.584-13.538s7.257,4.326,7.257,4.326" transform="translate(-1106.148 -949.549)" fill="#f7a491" fill-rule="evenodd"/>
    <path id="Fill-102" d="M1511.464,1253.085a10.717,10.717,0,0,1,4.389,4.851c1.278.606,2.824,1.917,3.567,5.451.912,4.343-2.333,7.691-5.771,8.7s-3.969,3.283-3.969,3.283l-.391-2.45a9.7,9.7,0,0,1,1.915-3.2c1.15-1.068-.544-2.622-.694-3.892-.115-.975.6-2.873.448-4.474,0,0-1.909-2.9-3.794-3.613-3.209-1.218.806-6.67,4.3-4.657" transform="translate(-1121.058 -937.482)" fill="#13375b" fill-rule="evenodd"/>
    <path id="Fill-103" d="M1520.072,1302.717c-.445,1.082-.262,2.152.407,2.4s1.576-.434,2.021-1.516.262-2.152-.407-2.4-1.576.437-2.021,1.516" transform="translate(-1131.117 -972.742)" fill="#f7a491" fill-rule="evenodd"/>
    <path id="Fill-104" d="M1421.471,1436.285l-19.831-3.234s2.256-5.681,3.064-5.681,14.994,6.194,14.994,6.194l1.128,2.267.645.453" transform="translate(-1045.208 -1064.487)" fill="#f8a492" fill-rule="evenodd"/>
    <path id="Fill-105" d="M1470.679,1507.387s1.977,9.565,1.172,16.816-.868,33.015-.868,33.015l3.075,41.216-7.3.161s-8.655-41.2-8.494-40.143-2.9-29.008-2.9-29.008l10.321-22.964,5,.907" transform="translate(-1084.256 -1121.991)" fill="#184655" fill-rule="evenodd"/>
    <path id="Fill-106" d="M1427.55,1499.694s1.292,8.611-.322,12.389-13.828,40.837-13.989,43.857-4.225,36.423-4.225,36.423l-8.489-.24-1.835-37.133,3.843-46.671,3.734-11.8,21.284,3.174" transform="translate(-1043.063 -1114.751)" fill="#13375b" fill-rule="evenodd"/>
    <path id="Fill-107" d="M1498.7,1344.508a7.618,7.618,0,0,1-4.048,1.213c-1.95-.158-4.711-1.961-4.711-1.961l.382-1.3s5.053-.735,5.178-.656,3.2,2.7,3.2,2.7" transform="translate(-1109.391 -1002.287)" fill="#f7a491" fill-rule="evenodd"/>
    <path id="Fill-108" d="M1404.25,1407.663s-7.5,7.079-10.887,5.872-4.788-5.339,3.474-11.386c7.393-5.408,7.413,5.514,7.413,5.514" transform="translate(-1037.254 -1045.062)" fill="#f8a492" fill-rule="evenodd"/>
    <path id="Fill-109" d="M1414.841,1378.491c1.114-6.063,9.19-24.93,9.835-28.4.314-1.691,4.67-1.726,8.822-1.508,4.381.235,8.737.789,8.737.789s3.878.636,5.585,2.237,2.163,6.022-.292,14.421c-1.936,6.629-4.34,10.269-5.528,15.1-.24,1.62-.445,3.217-.721,5.085-.434,7.219.005,16.759.005,16.759s-21.123,4.381-29.024-2.267c0,0,1.439-16,2.581-22.21" transform="translate(-1052.927 -1007.147)" fill="#50bfa5" fill-rule="evenodd"/>
    <path id="Fill-110" d="M1401.99,1366.1s8.289,6.842,8.773,6.842c.311,0,11.829-8.472,14.486-15.431,1.469-3.848-1.614-8.153-5.135-8.139-2.439.011-3.526.639-8.363,4.72s-9.761,12.009-9.761,12.009" transform="translate(-1045.462 -1007.79)" fill="#466eb6" fill-rule="evenodd"/>
    <path id="Fill-111" d="M1487.786,1304.64l3.111,1.7a1.68,1.68,0,0,1-2.207.6,1.643,1.643,0,0,1-.9-2.308" transform="translate(-1107.691 -975.277)" fill="#fff" fill-rule="evenodd"/>
    <path id="Fill-112" d="M763.819,1411.012c-.244-.7,3.15-1.259,3.331-1.966s-4.285-.759-4.445-1.382c-.295-1.142,4.895-.24,4.792-.773s-5.407-1.729-4.834-2.644,5.372,1.811,5.517,1.188-4.69-2.136-4.6-3.5c.046-.729,7.937,3.635,8.852,3.239s-.984-3.824-.256-4.332,2.82,6.962,3.323,7.213,11.163,6.334,14.956,7.3c.461-1.27,5.893-9.136,6.3-10.338,2.128,1.516,4.312,1.724,6.508,3.1-1.591,3.988-8.9,15.06-10,15.56-3.376,1.527-16.432-9.3-19.038-11.157s-4.1-1.254-5.865-1.838-4.289,1.024-4.533.325" transform="translate(-580.716 -1045.188)" fill="#f7a491" fill-rule="evenodd"/>
    <path id="Fill-113" d="M939.589,1297.941a11.166,11.166,0,0,0-12.375-7.385,11.662,11.662,0,0,0-7.31-5.219c-5.837-1.251-13.731,1.054-13.518,7.235-2.264,4.151-2.351,10.089,1.114,13.246-1.206,5.583,4.024,10.982,10.822,10.785a12.018,12.018,0,0,0,11.362,5.878,27.686,27.686,0,0,1,2.991-.331c-.344-.063,7.2,5.722,13.6-3.174,6.525-9.078,1.942-20.066-6.681-21.036" transform="translate(-684.047 -961.007)" fill="#184655" fill-rule="evenodd"/>
    <path id="Fill-114" d="M889.5,1516.19c.194.082-2.565,3.635-5.253,6.151a22.977,22.977,0,0,0-4.9,9.45c-1.064,5.337-.179,31.7-1.1,33.58-7.953,7.776-13.712,27.287-15.328,33.241a6.365,6.365,0,0,1-1.838,3.018l.354,6.727,3.951,3.641s-.879-5.481.878-9.548c0,0,20.023-30.322,21.211-32.64,2.271-6.6,10.541-40.419,10.541-40.419l1.919-7.776-10.43-5.424" transform="translate(-652.286 -1129.049)" fill="#f7a491" fill-rule="evenodd"/>
    <path id="Fill-115" d="M845.233,1830.9s2.5,3.854,2.714,5.356,1.546,4.908,3.019,5.124c.335.049,6.065.47,6.023-.246-.032-.549-2.106-1.33-3.069-1.994-1.665-1.15-4.249-10.515-4.249-10.515s-4.331,1.073-4.438,2.275" transform="translate(-640.766 -1356.149)" fill="#355389" fill-rule="evenodd"/>
    <path id="Fill-116" d="M968.213,1240.774s8.379-15.071,10.419-18.274,7.35-15.934,7.538-16.434-3.657-6.527-2.8-6.732,1.811,3.174,2.726,2.772,3.594-8.549,4.116-8.144c.975.757-1.442,5.053-.923,5.323s2.1-4.728,3.122-4.58-1.945,4.58-1.658,4.971,3.365-3.785,3.922-2.9c.3.483-2.832,3.646-2.229,3.944s3.389-1.745,3.684-1.158-2.578,1.4-3.439,2.982-2.322,2.272-2.931,5.211-1.516,13.574-4.632,18.878-9.961,17.048-9.961,17.048l-6.955-2.911" transform="translate(-730.158 -894.816)" fill="#f79c8d" fill-rule="evenodd"/>
    <path id="Fill-117" d="M995.523,1543.41s12.9,27.574,12.979,32.422c.071,4.157-2.253,27.473-1.6,46.889.022.7.909,1.633,2.2,2.226.729.333,4.242,1.9,4.242,1.9l.481,1.256-12.094-.86-.172-3.3s-4.815-29.046-4.323-37.261c.077-1.292.7-9.016.7-9.016l-14.546-28.082,9.146-12.023,2.985,5.85" transform="translate(-741.19 -1144.583)" fill="#f7a491" fill-rule="evenodd"/>
    <path id="Fill-118" d="M919.573,1680.26h0" transform="translate(-694.802 -1248.308)" fill="#f47458" fill-rule="evenodd"/>
    <path id="Fill-119" d="M909.954,1360.1c.347-2.12,3.628-7.426,4.146-8.726,0,0-3.8-4.834-6.892-4.468,0,0-4.15,6.88-6.509,7.109s-10.657.593-12.112,1.475-7.627,10.359-7.627,10.359,5.547,5.665,7.778,5.651a23.4,23.4,0,0,1,1.659-2.846c.336,1.087,5.5,17.829,5.5,21.623l.04.033a10.855,10.855,0,0,0,15.605-2.008,86.23,86.23,0,0,1-.19-10.031c.389-7.541,1.915-11.547-1.395-18.171" transform="translate(-666.735 -1005.986)" fill="#3c8f7c" fill-rule="evenodd"/>
    <path id="Fill-120" d="M961.207,1535.1l-25.313-36.571a24.777,24.777,0,0,1-4.706,1.5,48.864,48.864,0,0,1-10.939.47,2.609,2.609,0,0,1-.022.358c-.422,3.015-4.421,7.683-5.246,16.832-.936,10.384-.37,28.423-.053,29.609,16.828-2.046,41.5-7.191,46.278-12.2" transform="translate(-691.091 -1116.212)" fill="#f7cc7f" fill-rule="evenodd"/>
    <path id="Fill-121" d="M937.6,1344.019a38.309,38.309,0,0,1,.712,6.686c-.178,1.893.679,7.986,4.523,8.008s.73-7.751.368-9.6a73.83,73.83,0,0,1-.448-7.59l-5.155,2.5" transform="translate(-707.908 -1002.085)" fill="#f7a491" fill-rule="evenodd"/>
    <path id="Fill-122" d="M942.838,1344.4c-.06-1.568-.079-2.876-.079-2.876l-5.155,2.5s.182.98.365,2.229a4.415,4.415,0,0,0,4.87-1.852" transform="translate(-707.908 -1002.085)" fill="#f47458" fill-rule="evenodd"/>
    <path id="Fill-123" d="M922.878,1300.534a6.582,6.582,0,0,0-2.713,3.635c-.726,2.488.1,8.906,5.232,10.455s7.355-3.534,6.3-7.508-3.356-9-8.817-6.582" transform="translate(-695.067 -971.832)" fill="#f7a491" fill-rule="evenodd"/>
    <path id="Fill-124" d="M959.541,1315.235c-.1,1.068-.666,1.884-1.263,1.822s-1-.975-.9-2.04.666-1.885,1.263-1.825,1,.978.9,2.043" transform="translate(-722.272 -981.491)" fill="#f7a491" fill-rule="evenodd"/>
    <path id="Fill-125" d="M919.144,1332.847c.6.934.6,2.035,0,2.458s-1.585.011-2.188-.92-.6-2.035,0-2.458,1.585-.011,2.188.92" transform="translate(-692.569 -994.991)" fill="#f7a491" fill-rule="evenodd"/>
    <path id="Fill-126" d="M1049.555,1859.575h15.278c.565-.052.7-.508.508-.789-.4-.576-2.188-1-4.19-1.925-3.515.366-11.168-2.035-11.722-2.84-.32,1.614-.189,5.487.125,5.555" transform="translate(-789.059 -1374.611)" fill="#355389" fill-rule="evenodd"/>
    <path id="Fill-127" d="M940.282,1337.057l3.28-.967a1.51,1.51,0,0,1-1.132,1.759c-1.744.571-2.147-.792-2.147-.792" transform="translate(-709.855 -998.138)" fill="#fff" fill-rule="evenodd"/>
    <path id="Fill-128" d="M624.7,1062.44c.427.019,1.6.41,3.308,3.643,2.186,4.132,5.38,16.608,5.38,16.608l-9.534,3.551-1.225-2.606-2.017-20.047s3.97-1.155,4.088-1.15" transform="translate(-477.493 -799.226)" fill="#3c8f7c" fill-rule="evenodd"/>
    <path id="Fill-129" d="M544.432,1055.86a58.061,58.061,0,0,1,12.6,1.8s2.3,19.768-2.071,34.79c-.978,3.362.809,13.94.809,13.94l-28.251-.374s3.347-25.569,2.086-29.7-1.291-18.526-1.291-18.526.194-.03,6.347-1.092a63.626,63.626,0,0,1,9.767-.839" transform="translate(-409.828 -794.443)" fill="#96d9c9" fill-rule="evenodd"/>
    <path id="Fill-130" d="M556.012,1375.21s.625,7.213,1.774,9.212-.06,5.394-.121,5.859-2.419,1.133-6.169.732-3.69-1.265-3.387-2.663,2.3-3.2,2.419-4.528-1.149-6.126-1.149-6.126l6.633-2.485" transform="translate(-424.7 -1026.573)" fill="#f7a491" fill-rule="evenodd"/>
    <path id="Fill-131" d="M551.3,1217.889s19.5-1.084,23.857,1.554-3.094,15.581-3.094,15.581-13.57-.625-40.15.909c-6.294.363-6.837-16.412-5.66-17.8s25.047-.243,25.047-.243" transform="translate(-408.545 -911.897)" fill="#355389" fill-rule="evenodd"/>
    <path id="Fill-132" d="M550.417,1417.246c-3.861-.41-3.384-2.308-3.072-3.747.2-.9,1.3-1.964,1.963-2.969a6.458,6.458,0,0,0,2.583,1.254c1.741.516,4.128-.5,5.649-1.139a18.622,18.622,0,0,1,.516,4.979c-.062.481-3.778,2.035-7.639,1.622" transform="translate(-424.088 -1052.247)" fill="#13375b" fill-rule="evenodd"/>
    <path id="Fill-133" d="M527.607,1232.354c.779,5.9,4.637,35.246,4.637,35.246l-8.951,1.109s-11.007-38.308-10.443-44.169,4.685-6.353,4.685-6.353,8.01-1.439,10.072,14.167" transform="translate(-399.148 -912.411)" fill="#466eb6" fill-rule="evenodd"/>
    <path id="Fill-134" d="M517.583,1070.9c2.641-.991,3.934,22.808,4.29,32.6a114.818,114.818,0,0,0,14.861-.15c.955-.071,3.156-.877,4.106-1a9.512,9.512,0,0,1,2.333-.109,44.007,44.007,0,0,1,5.468,2.461c.517.543,1.916,1.912,1.679,2.5s-2.689-1.647-2.689-1.647l-1.2-.675c1.492,1.458,4.34,3.378,3.929,4.078-.4.683-2.968-1.265-4.8-2.595,1.57,1.418,3.521,3.958,3.071,4.351-.4.358-2.622-2.581-4.993-3.428-.879-.314-1.755.554-2.446.661a4.962,4.962,0,0,1-1.79.1l-2.567-.726c-.875.079-.9.6-1.78.784-1.025.219-2.707.448-4.013.768-7.518,1.835-10.026,2.69-12.328,2.688-6.973-.005-7.377-38.321-1.134-40.662" transform="translate(-399.401 -805.354)" fill="#f7a491" fill-rule="evenodd"/>
    <path id="Fill-135" d="M510.445,1087.324c-.495-10.034-.422-22.4,5.2-24.512,2.22-.833,6.132,4.173,5.428,24.717a42.432,42.432,0,0,1-10.631-.2" transform="translate(-397.276 -799.434)" fill="#3c8f7c" fill-rule="evenodd"/>
    <path id="Fill-136" d="M654.548,1397.8s-.781,2.5.618,4.162,7.21,3.28,7.973,4.176a2.515,2.515,0,0,1,.7,1.66l-16.31-.448.178-4.927.751-3.54,6.086-1.084" transform="translate(-497.061 -1042.994)" fill="#f7a491" fill-rule="evenodd"/>
    <path id="Fill-137" d="M653.751,1415.062s-4.191,1.7-6.215.691-1.963-1.281-2.549-.907-.8,4.993-.8,4.993l18.341.538c1.276-.03,1.922-.969.885-1.775a14.916,14.916,0,0,0-2-1.188c-1.435-.822-7.666-2.352-7.666-2.352" transform="translate(-494.632 -1055.268)" fill="#13375b" fill-rule="evenodd"/>
    <path id="Fill-138" d="M654.768,1223.579c1.26-2.652,4.128-6.107,9.172-4.026,4.811,1.983,6.1,6.861,4.585,11.853s-11.512,34.347-11.86,38.384l-7.979.052s1.45-23.242,1.806-28.86a54.406,54.406,0,0,1,4.276-17.4" transform="translate(-497.899 -912.965)" fill="#466eb6" fill-rule="evenodd"/>
    <path id="Fill-139" d="M580.137,1137H553.464a1.74,1.74,0,0,0-1.609,1.084l-8.213,20.1h-14.7a.747.747,0,0,0,0,1.494h41.852a2.925,2.925,0,0,0,2.665-1.732l8.27-18.485a1.745,1.745,0,0,0-1.587-2.461" transform="translate(-410.315 -853.423)" fill="#12353d" fill-rule="evenodd"/>
    <path id="Fill-140" d="M658.11,1174.676a1.469,1.469,0,1,1-1.1-1.923,1.569,1.569,0,0,1,1.1,1.923" transform="translate(-502.649 -879.393)" fill="#fff" fill-rule="evenodd"/>
    <path id="Fill-141" d="M573.131,962.012a20.446,20.446,0,0,1-2.36-.945,11.848,11.848,0,0,0-2.691-1.014c-1.488-.23-4.046-.077-5.458,1.455-1.759,1.909-4.886.345-4.256,10.34.713,11.315,7,10.073,7.157,9.881s5.611-7.238,5.611-7.238,1.909,4.173,1.909,4.02,9.745-13.249.088-16.5" transform="translate(-432.188 -724.742)" fill="#0e2e35" fill-rule="evenodd"/>
    <path id="Fill-142" d="M577.96,1025.766l.543,4.042s1.216,5.826-.349,6.948-6.656-7.115-6.656-7.115l.538-10.242,5.924,6.366" transform="translate(-441.794 -767.942)" fill="#f7a491" fill-rule="evenodd"/>
    <path id="Fill-143" d="M572.832,1022.718a11.594,11.594,0,0,0,6.558,6.476l-.461-3.428-5.924-6.366-.174,3.318" transform="translate(-442.763 -767.942)" fill="#f47458" fill-rule="evenodd"/>
    <path id="Fill-144" d="M575.788,978.4A5.391,5.391,0,0,1,582,983.848a40.965,40.965,0,0,1-.454,5.186c-.721,4.668-3.905,8.775-6.01,8.409s-7.4-4.395-6.47-11.034c.576-4.1,3.246-7.452,6.726-8.014" transform="translate(-439.943 -738.087)" fill="#f7a491" fill-rule="evenodd"/>
    <path id="Fill-145" d="M566.549,1005.122a1.57,1.57,0,1,1-1.193-2.122,1.737,1.737,0,0,1,1.193,2.122" transform="translate(-435.969 -756.007)" fill="#f7a491" fill-rule="evenodd"/>
    <path id="Fill-146" d="M568.195,980.958s2.546.634,3.49-1.005,4.323-5.17,8.617-3.705-3.779-3.562-4.122-3.562-4.466-.029-4.466-.029-3.178,2.614-3.292,2.9-1.03,3.418-1.03,3.418l.8,1.982" transform="translate(-438.808 -733.965)" fill="#0e2e35" fill-rule="evenodd"/>
    <path id="Fill-147" d="M587.339,1028.06l4.632.885a2.062,2.062,0,0,1-2.49,1.415c-2.5-.4-2.142-2.3-2.142-2.3" transform="translate(-453.295 -774.236)" fill="#fff" fill-rule="evenodd"/>
    <path id="Fill-148" d="M766.922,1873.23H283.934a1.712,1.712,0,1,0,0,3.425H766.922a1.712,1.712,0,0,0,0-3.425" transform="translate(-231.523 -1388.575)" fill="none"/>
    <path id="Fill-149" d="M1691.77,1390.6c-.243-.7,3.152-1.262,3.332-1.966s-4.285-.762-4.444-1.382c-.295-1.141,4.894-.24,4.791-.773s-5.408-1.729-4.834-2.647,5.372,1.814,5.517,1.191-4.689-2.136-4.6-3.5c.047-.729,7.937,3.632,8.852,3.236s-.986-3.821-.257-4.329,2.821,6.962,3.324,7.21,11.162,6.333,14.956,7.3c.461-1.273,1.456-2.985,1.863-4.187,2.128,1.516,3.709,2.275,5.9,3.657-1.592,3.988-3.856,8.355-4.965,8.855-3.376,1.524-16.431-9.3-19.036-11.157s-4.1-1.254-5.867-1.838-4.288,1.024-4.534.325" transform="translate(-1255.226 -1030.353)" fill="#f7a491" fill-rule="evenodd"/>
    <path id="Fill-150" d="M1803.553,1380.132c1.008,4.154-4.37,13.413-4.37,13.413s-7.664-3.616-9.013-5.176c0,0,5.208-8.983,5.55-9.529a4.707,4.707,0,0,1,5.009-2.316c1.1.128,2.824,3.608,2.824,3.608" transform="translate(-1327.623 -1027.486)" fill="#eab765" fill-rule="evenodd"/>
  </g>
</svg>
