<?xml version="1.0" encoding="UTF-8"?>
<svg width="202px" height="60px" viewBox="0 0 202 60" version="1.1" xmlns="http://www.w3.org/2000/svg" xmlns:xlink="http://www.w3.org/1999/xlink">
    <title>logo_giftstock_bg_dark@1x</title>
    <g id="Branding-Finals" stroke="none" stroke-width="1" fill="none" fill-rule="evenodd">
        <g id="Brand-Logo_openstock_typographic-Copy-2" transform="translate(-511.000000, -397.000000)">
            <g id="BG_#30067F" transform="translate(421.000000, 298.000000)">
                <g id="logo_giftstock_bg_dark" transform="translate(90.000000, 99.000000)">
                    <rect id="logo_bleed" opacity="0" x="0" y="0" width="202" height="60"></rect>
                    <g id="giftstock." transform="translate(20.000000, 13.000000)" fill-rule="nonzero">
                        <path d="M11.294219,35.7851328 C14.0341772,35.7851328 16.3745581,35.0112776 18.3153618,33.463567 C20.2561655,31.9158564 21.2265674,29.6704075 21.2265674,26.7272202 L21.2265674,26.7272202 L21.2265674,8.61139483 L16.4316406,8.61139483 L16.4316406,10.9710191 C14.9855515,9.04272401 12.9559529,8.07857644 10.3428446,8.07857644 C7.6789964,8.07857644 5.43375289,9.03003786 3.6071141,10.9329607 C1.78047532,12.8358835 0.867155924,15.1320771 0.867155924,17.8215413 C0.867155924,20.5363779 1.77413282,22.8389145 3.58808662,24.7291512 C5.40204041,26.6193879 7.65362642,27.5645062 10.3428446,27.5645062 C12.9559529,27.5645062 14.9855515,26.6003587 16.4316406,24.6720635 L16.4316406,24.6720635 L16.4316406,26.7272202 C16.4316406,28.2241861 15.9876659,29.378626 15.0997165,30.1905397 C14.2117671,31.0024535 12.9940079,31.4084103 11.4464389,31.4084103 C9.08703046,31.4084103 7.42529657,30.5203797 6.46123721,28.7443184 L6.46123721,28.7443184 L2.27518999,31.1420011 C3.11239943,32.6643394 4.31113114,33.8187793 5.8713851,34.6053207 C7.43163906,35.3918621 9.23925036,35.7851328 11.294219,35.7851328 Z M11.1039441,23.0355499 C9.55637515,23.0355499 8.275191,22.5534761 7.26039168,21.5893285 C6.27096233,20.5998087 5.77624766,19.3438796 5.77624766,17.8215413 C5.77624766,16.3245754 6.27730483,15.0876755 7.27941916,14.1108418 C8.2815335,13.1340081 9.55637515,12.6455912 11.1039441,12.6455912 C12.6515131,12.6455912 13.9263547,13.1340081 14.9284691,14.1108418 C15.9305834,15.0876755 16.4316406,16.3245754 16.4316406,17.8215413 C16.4316406,19.3438796 15.9305834,20.5934656 14.9284691,21.5702993 C13.9263547,22.547133 12.6515131,23.0355499 11.1039441,23.0355499 Z M28.1145178,6.32788744 C28.9517273,6.32788744 29.6684293,6.02976286 30.2646239,5.43351371 C30.8608185,4.83726455 31.1589158,4.13318311 31.1589158,3.32126937 C31.1589158,2.50935563 30.8608185,1.7989311 30.2646239,1.1899958 C29.6684293,0.581060491 28.9517273,0.276592838 28.1145178,0.276592838 C27.3026784,0.276592838 26.5986613,0.581060491 26.0024667,1.1899958 C25.4062721,1.7989311 25.1081748,2.50935563 25.1081748,3.32126937 C25.1081748,4.13318311 25.4062721,4.83726455 26.0024667,5.43351371 C26.5986613,6.02976286 27.3026784,6.32788744 28.1145178,6.32788744 Z M30.5880912,27.6406231 L30.5880912,8.61139483 L25.6789994,8.61139483 L25.6789994,27.6406231 L30.5880912,27.6406231 Z M41.2815391,27.6406231 L41.2815391,13.3306435 L45.3153664,13.3306435 L45.3153664,8.61139483 L41.2815391,8.61139483 L41.2815391,8.42110255 C41.2815391,6.06147824 42.6261482,4.9831553 45.3153664,5.18613374 L45.3153664,5.18613374 L45.3153664,0.466885121 C42.3470784,0.28927899 40.1145199,0.898214296 38.6176908,2.29369104 C37.1208618,3.68916778 36.3724473,5.73163828 36.3724473,8.42110255 L36.3724473,8.42110255 L36.3724473,8.61139483 L33.6324892,8.61139483 L33.6324892,13.3306435 L36.3724473,13.3306435 L36.3724473,27.6406231 L41.2815391,27.6406231 Z M51.3090249,26.6891617 C52.691689,27.7040539 55.0701249,28.0212077 58.4443327,27.6406231 L58.4443327,27.6406231 L58.4443327,23.1877837 C57.5056433,23.2385283 56.7191738,23.2448714 56.0849242,23.2068129 C55.4506747,23.1687545 54.968645,22.9974914 54.6388352,22.6930238 C54.3090254,22.3885561 54.1441205,21.9064823 54.1441205,21.2468024 L54.1441205,21.2468024 L54.1441205,13.3306435 L58.4443327,13.3306435 L58.4443327,8.61139483 L54.1441205,8.61139483 L54.1441205,3.28321091 L49.2350288,4.76749072 L49.2350288,8.61139483 L45.924246,8.61139483 L45.924246,13.3306435 L49.2350288,13.3306435 L49.2350288,21.2468024 C49.2350288,23.8601498 49.9263608,25.6742695 51.3090249,26.6891617 Z M68.8713957,28.1353831 C70.9517344,28.1353831 72.6578657,27.6152508 73.9897898,26.5749863 C75.321714,25.5347219 75.987676,24.1519313 75.987676,22.4266146 C75.987676,21.1326271 75.6198113,20.0733333 74.8840818,19.2487335 C74.1483522,18.4241336 73.2604028,17.8405706 72.2202335,17.4980444 C71.1800642,17.1555183 70.1398949,16.8510507 69.0997256,16.5846415 C68.0595563,16.3182323 67.1716069,15.96302 66.4358774,15.5190047 C65.7001479,15.0749894 65.3322831,14.4850833 65.3322831,13.7492865 C65.3322831,12.9373727 65.6620929,12.3094082 66.3217124,11.8653929 C66.981332,11.4213775 67.7804865,11.1993699 68.7191758,11.1993699 C70.7487745,11.1993699 72.1060686,12.0112836 72.7910581,13.6351111 L72.7910581,13.6351111 L75.5690713,12.0747144 C74.9601917,10.8314715 74.0532148,9.86098083 72.8481406,9.16324245 C71.6430664,8.46550408 70.2667448,8.1166349 68.7191758,8.1166349 C66.7910571,8.1166349 65.1864057,8.64945329 63.9052215,9.71509007 C62.6240374,10.7807269 61.9834453,12.1381451 61.9834453,13.7873449 C61.9834453,15.0559602 62.3513101,16.0962246 63.0870396,16.9081384 C63.8227691,17.7200521 64.7107185,18.3036151 65.7508878,18.6588274 C66.7910571,19.0140396 67.8312264,19.3248504 68.8713957,19.5912596 C69.9115651,19.8576688 70.7995145,20.212881 71.535244,20.6568963 C72.2709735,21.1009117 72.6388382,21.6908178 72.6388382,22.4266146 C72.6388382,23.3146452 72.2836585,23.9679821 71.573299,24.3866251 C70.8629394,24.8052681 69.962305,25.0145896 68.8713957,25.0145896 C67.7043765,25.0145896 66.7022622,24.7481804 65.8650527,24.215362 C65.0278433,23.6825436 64.4570187,22.959433 64.1525789,22.04603 L64.1525789,22.04603 L61.2984558,23.6825436 C61.8565954,25.0272758 62.7952848,26.1055987 64.1145239,26.9175125 C65.433763,27.7294262 67.019387,28.1353831 68.8713957,28.1353831 Z M83.9031108,26.9365417 C85.2477199,27.7865139 87.3661135,28.0212077 90.2582915,27.6406231 L90.2582915,27.6406231 L90.2582915,24.6720635 C89.1420123,24.7228081 88.2033229,24.7418374 87.4422234,24.7291512 C86.6811239,24.7164651 86.1166418,24.5134866 85.748777,24.1202159 C85.3809123,23.7269452 85.1969799,23.0609222 85.1969799,22.1221469 L85.1969799,22.1221469 L85.1969799,11.8083052 L90.2582915,11.8083052 L90.2582915,8.61139483 L85.1969799,8.61139483 L85.1969799,3.28321091 L81.8861971,4.27273078 L81.8861971,8.61139483 L78.1187546,8.61139483 L78.1187546,11.8083052 L81.8861971,11.8083052 L81.8861971,22.1221469 C81.8861971,24.4817712 82.5585017,26.0865695 83.9031108,26.9365417 Z M103.235038,28.1353831 C106.025736,28.1353831 108.397829,27.1712355 110.351318,25.2429404 C112.304807,23.3146452 113.281551,20.9423348 113.281551,18.126009 C113.281551,15.3096832 112.304807,12.9373727 110.351318,11.0090776 C108.397829,9.08078246 106.025736,8.1166349 103.235038,8.1166349 C100.44434,8.1166349 98.0785888,9.08078246 96.1377851,11.0090776 C94.1969814,12.9373727 93.2265796,15.3096832 93.2265796,18.126009 C93.2265796,20.9423348 94.1969814,23.3146452 96.1377851,25.2429404 C98.0785888,27.1712355 100.44434,28.1353831 103.235038,28.1353831 Z M103.235038,24.9004143 C101.357659,24.9004143 99.7720352,24.2534205 98.4781661,22.959433 C97.1842969,21.6654454 96.5373624,20.0543041 96.5373624,18.126009 C96.5373624,16.1977138 97.1842969,14.5865725 98.4781661,13.292585 C99.7720352,11.9985975 101.357659,11.3516037 103.235038,11.3516037 C105.137787,11.3516037 106.736096,11.9985975 108.029965,13.292585 C109.323834,14.5865725 109.970768,16.1977138 109.970768,18.126009 C109.970768,20.0543041 109.323834,21.6654454 108.029965,22.959433 C106.736096,24.2534205 105.137787,24.9004143 103.235038,24.9004143 Z M126.144133,28.1353831 C127.996141,28.1353831 129.683245,27.6850247 131.205444,26.7843079 C132.727643,25.8835911 133.894663,24.6847497 134.706502,23.1877837 L134.706502,23.1877837 L131.890434,21.5512701 C131.357664,22.5661623 130.58388,23.3717329 129.56908,23.9679821 C128.554281,24.5642312 127.412632,24.8623558 126.144133,24.8623558 C124.241384,24.8623558 122.649418,24.215362 121.368233,22.9213745 C120.087049,21.627387 119.446457,20.0289318 119.446457,18.126009 C119.446457,16.1977138 120.087049,14.5865725 121.368233,13.292585 C122.649418,11.9985975 124.241384,11.3516037 126.144133,11.3516037 C127.412632,11.3516037 128.547939,11.6560714 129.550053,12.2650067 C130.552167,12.873942 131.294239,13.6858557 131.776269,14.7007479 L131.776269,14.7007479 L134.554282,13.1022927 C133.818553,11.5799544 132.702273,10.3684269 131.205444,9.46771011 C129.708615,8.5669933 128.021511,8.1166349 126.144133,8.1166349 C123.277325,8.1166349 120.892546,9.07443939 118.989797,10.9900484 C117.087049,12.9056574 116.135674,15.2843109 116.135674,18.126009 C116.135674,20.9677071 117.087049,23.3463606 118.989797,25.2619696 C120.892546,27.1775786 123.277325,28.1353831 126.144133,28.1353831 Z M141.328068,27.6406231 L141.328068,18.6207689 L150.004602,27.6406231 L154.114539,27.6406231 L144.71496,17.8215413 L153.810099,8.61139483 L149.547942,8.61139483 L141.328068,17.0223137 L141.328068,0.999703513 L138.017285,0.999703513 L138.017285,27.6406231 L141.328068,27.6406231 Z" id="giftstock" fill="#FFFFFF"></path>
                        <path d="M159.727845,28.3230392 C160.534819,28.3230392 161.204896,28.0492443 161.738076,27.5016545 C162.271255,26.9540648 162.537845,26.291193 162.537845,25.5130392 C162.537845,24.7348853 162.271255,24.0720135 161.738076,23.5244238 C161.204896,22.976834 160.534819,22.7030392 159.727845,22.7030392 C158.949691,22.7030392 158.286819,22.976834 157.73923,23.5244238 C157.19164,24.0720135 156.917845,24.7348853 156.917845,25.5130392 C156.917845,26.291193 157.19164,26.9540648 157.73923,27.5016545 C158.286819,28.0492443 158.949691,28.3230392 159.727845,28.3230392 Z" id="." fill="#4CD964"></path>
                    </g>
                </g>
            </g>
        </g>
    </g>
</svg>