<?xml version="1.0" encoding="UTF-8"?>
<svg width="272px" height="60px" viewBox="0 0 272 60" version="1.1" xmlns="http://www.w3.org/2000/svg" xmlns:xlink="http://www.w3.org/1999/xlink">
    <title>logo_marketfeed_bg_dark@1x</title>
    <g id="Branding-Finals" stroke="none" stroke-width="1" fill="none" fill-rule="evenodd">
        <g id="Brand-Logo_marketfeed_typographic" transform="translate(-476.000000, -139.000000)">
            <g id="BG_-#170439" transform="translate(421.000000, 40.000000)">
                <g id="logo_marketfeed_bg_dark" transform="translate(55.000000, 99.000000)">
                    <rect id="logo_bleed" opacity="0" x="0" y="0" width="272" height="60"></rect>
                    <g id="marketfeed." transform="translate(22.000000, 15.000000)" fill-rule="nonzero">
                        <path d="M5.25559217,29.0821863 L5.25559217,17.6339584 C5.25559217,16.1401208 5.60189088,14.9993721 6.2944883,14.2117123 C6.98708572,13.4240525 7.91733911,13.0302226 9.08524848,13.0302226 C10.1716758,13.0302226 11.013657,13.3697312 11.611192,14.0487482 C12.208727,14.7277653 12.5074946,15.6783892 12.5074946,16.9006199 L12.5074946,16.9006199 L12.5074946,29.0821863 L17.7630867,29.0821863 L17.7630867,17.6339584 C17.7630867,16.1401208 18.0958051,14.9993721 18.7612418,14.2117123 C19.4266786,13.4240525 20.356932,13.0302226 21.552002,13.0302226 C22.6384293,13.0302226 23.4804105,13.3697312 24.0779455,14.0487482 C24.6754806,14.7277653 24.9742481,15.6783892 24.9742481,16.9006199 L24.9742481,16.9006199 L24.9742481,29.0821863 L30.2298402,29.0821863 L30.2298402,16.5339507 C30.2298402,13.9808465 29.5304527,11.9437953 28.1316775,10.422797 C26.7329023,8.90179879 24.8656053,8.14129966 22.5297866,8.14129966 C19.840879,8.14129966 17.8174081,9.11908425 16.4593739,11.0746534 C15.2643039,9.11908425 13.4173774,8.14129966 10.9185946,8.14129966 C8.36549038,8.14129966 6.47782291,9.05118254 5.25559217,10.8709483 L5.25559217,10.8709483 L5.25559217,8.71167401 L0,8.71167401 L0,29.0821863 L5.25559217,29.0821863 Z M43.5521553,29.6525606 C46.404027,29.6525606 48.6176227,28.6611957 50.1929423,26.6784659 L50.1929423,26.6784659 L50.1929423,29.0821863 L55.4485345,29.0821863 L55.4485345,8.71167401 L50.1929423,8.71167401 L50.1929423,11.1153945 C48.6176227,9.13266459 46.404027,8.14129966 43.5521553,8.14129966 C40.836087,8.14129966 38.5070584,9.18019579 36.5650696,11.257988 C34.6230807,13.3357803 33.6520863,15.8820943 33.6520863,18.8969302 C33.6520863,21.911766 34.6230807,24.45808 36.5650696,26.5358723 C38.5070584,28.6136645 40.836087,29.6525606 43.5521553,29.6525606 Z M44.5299399,24.6414146 C42.9002989,24.6414146 41.5558451,24.1117813 40.4965784,23.0525147 C39.4373118,21.9660873 38.9076785,20.5808925 38.9076785,18.8969302 C38.9076785,17.2129678 39.4373118,15.8345631 40.4965784,14.7617162 C41.5558451,13.6888692 42.9002989,13.1524457 44.5299399,13.1524457 C46.1595809,13.1524457 47.5108248,13.6888692 48.5836718,14.7617162 C49.6565188,15.8345631 50.1929423,17.2129678 50.1929423,18.8969302 C50.1929423,20.5808925 49.6565188,21.9592972 48.5836718,23.0321442 C47.5108248,24.1049911 46.1595809,24.6414146 44.5299399,24.6414146 Z M65.4708265,29.0821863 L65.4708265,19.3450814 C65.4708265,17.3895122 66.1023124,15.9907371 67.3652842,15.1487559 C68.6282559,14.3067747 70.060982,13.9808465 71.6634623,14.1709713 L71.6634623,14.1709713 L71.6634623,8.30426376 C70.2782674,8.30426376 69.0220858,8.63019196 67.8949175,9.28204835 C66.7677491,9.93390474 65.9597188,10.9116893 65.4708265,12.2154021 L65.4708265,12.2154021 L65.4708265,8.71167401 L60.2152344,8.71167401 L60.2152344,29.0821863 L65.4708265,29.0821863 Z M79.9746313,29.0821863 L79.9746313,19.8339737 L87.3894978,29.0821863 L93.5006514,29.0821863 L85.0672594,18.7747071 L93.2562053,8.71167401 L86.9820875,8.71167401 L79.9746313,17.6746994 L79.9746313,0.563469086 L74.7190391,0.563469086 L74.7190391,29.0821863 L79.9746313,29.0821863 Z M106.211851,29.6525606 C110.122989,29.6525606 113.083504,28.1994641 115.093394,25.293271 L115.093394,25.293271 L110.856328,22.8488095 C109.824222,24.2068437 108.303224,24.8858608 106.293333,24.8858608 C103.169855,24.8858608 101.255026,23.6093087 100.548849,21.0562045 L100.548849,21.0562045 L115.908215,21.0562045 C116.044018,20.2957053 116.11192,19.5759472 116.11192,18.8969302 C116.11192,15.8549337 115.140926,13.3018294 113.198937,11.2376175 C111.256948,9.17340562 108.792116,8.14129966 105.804441,8.14129966 C102.653802,8.14129966 100.073537,9.16661545 98.0636462,11.217247 C96.0537557,13.2678786 95.0488104,15.827773 95.0488104,18.8969302 C95.0488104,21.993248 96.067336,24.5599326 98.1043872,26.5969838 C100.141438,28.634035 102.843926,29.6525606 106.211851,29.6525606 Z M110.856328,16.982102 L100.467367,16.982102 C100.766134,15.6783892 101.37725,14.6666538 102.300713,13.9468957 C103.224176,13.2271376 104.392085,12.8672585 105.804441,12.8672585 C106.999511,12.8672585 108.065568,13.2067671 109.002611,13.8857841 C109.939655,14.5648012 110.55756,15.5969072 110.856328,16.982102 L110.856328,16.982102 Z M123.791603,28.0636607 C125.27186,29.150088 127.818174,29.4895965 131.430545,29.0821863 L131.430545,29.0821863 L131.430545,24.3154864 C130.4256,24.3698078 129.583619,24.376598 128.904602,24.3358569 C128.225585,24.2951159 127.709532,24.1117813 127.356443,23.7858531 C127.003354,23.4599249 126.82681,22.9438719 126.82681,22.2376942 L126.82681,22.2376942 L126.82681,13.7635611 L131.430545,13.7635611 L131.430545,8.71167401 L126.82681,8.71167401 L126.82681,3.00793056 L121.571217,4.59683052 L121.571217,8.71167401 L118.026748,8.71167401 L118.026748,13.7635611 L121.571217,13.7635611 L121.571217,22.2376942 C121.571217,25.0352445 122.311346,26.9772334 123.791603,28.0636607 Z M140.841722,29.0821863 L140.841722,12.1339201 L146.219537,12.1339201 L146.219537,8.71167401 L140.841722,8.71167401 L140.841722,8.10055864 C140.841722,4.70547325 142.634327,3.15731432 146.219537,3.45608183 L146.219537,3.45608183 L146.219537,0.0338357662 C143.340505,-0.156289015 141.133699,0.454826354 139.599121,1.86718187 C138.064542,3.27953739 137.297253,5.35732965 137.297253,8.10055864 L137.297253,8.10055864 L137.297253,8.71167401 L134.037971,8.71167401 L134.037971,12.1339201 L137.297253,12.1339201 L137.297253,29.0821863 L140.841722,29.0821863 Z M158.686291,29.6118196 C162.678911,29.6118196 165.666586,28.077241 167.649316,25.0080838 L167.649316,25.0080838 L164.63448,23.2969608 C163.41225,25.2796907 161.45668,26.2710556 158.767773,26.2710556 C156.839364,26.2710556 155.216514,25.768583 153.89922,24.7636377 C152.581927,23.7586924 151.746736,22.3463369 151.393647,20.5265711 L151.393647,20.5265711 L168.464137,20.5265711 C168.545619,19.9833575 168.58636,19.4537242 168.58636,18.9376712 C168.58636,15.9771567 167.642526,13.444423 165.754859,11.3394701 C163.867191,9.23451715 161.42952,8.18204069 158.441845,8.18204069 C155.291205,8.18204069 152.724521,9.2005663 150.741791,11.2376175 C148.759061,13.2746688 147.767696,15.827773 147.767696,18.8969302 C147.767696,21.993248 148.779432,24.5531424 150.802903,26.5766133 C152.826373,28.6000842 155.45417,29.6118196 158.686291,29.6118196 Z M165.00115,17.4302533 L151.393647,17.4302533 C151.692415,15.6376482 152.466494,14.2049222 153.715886,13.1320752 C154.965277,12.0592282 156.540597,11.5228047 158.441845,11.5228047 C160.071486,11.5228047 161.497421,12.0252773 162.719652,13.0302226 C163.941883,14.0351679 164.702382,15.5018448 165.00115,17.4302533 L165.00115,17.4302533 Z M182.438308,29.6118196 C186.430929,29.6118196 189.418604,28.077241 191.401334,25.0080838 L191.401334,25.0080838 L188.386498,23.2969608 C187.164267,25.2796907 185.208698,26.2710556 182.51979,26.2710556 C180.591382,26.2710556 178.968531,25.768583 177.651238,24.7636377 C176.333945,23.7586924 175.498754,22.3463369 175.145665,20.5265711 L175.145665,20.5265711 L192.216154,20.5265711 C192.297636,19.9833575 192.338377,19.4537242 192.338377,18.9376712 C192.338377,15.9771567 191.394543,13.444423 189.506876,11.3394701 C187.619208,9.23451715 185.181537,8.18204069 182.193862,8.18204069 C179.043223,8.18204069 176.476538,9.2005663 174.493808,11.2376175 C172.511078,13.2746688 171.519714,15.827773 171.519714,18.8969302 C171.519714,21.993248 172.531449,24.5531424 174.55492,26.5766133 C176.578391,28.6000842 179.206187,29.6118196 182.438308,29.6118196 Z M188.753167,17.4302533 L175.145665,17.4302533 C175.444432,15.6376482 176.218512,14.2049222 177.467903,13.1320752 C178.717295,12.0592282 180.292614,11.5228047 182.193862,11.5228047 C183.823503,11.5228047 185.249439,12.0252773 186.47167,13.0302226 C187.6939,14.0351679 188.454399,15.5018448 188.753167,17.4302533 L188.753167,17.4302533 Z M205.57921,29.6118196 C208.947135,29.6118196 211.513819,28.2673658 213.279264,25.5784582 L213.279264,25.5784582 L213.279264,29.0821863 L216.823733,29.0821863 L216.823733,0.563469086 L213.279264,0.563469086 L213.279264,12.2154021 C211.513819,9.5264945 208.947135,8.18204069 205.57921,8.18204069 C202.727338,8.18204069 200.296457,9.22093681 198.286567,11.2987291 C196.276676,13.3765213 195.271731,15.909255 195.271731,18.8969302 C195.271731,21.8846053 196.276676,24.417339 198.286567,26.4951312 C200.296457,28.5729235 202.727338,29.6118196 205.57921,29.6118196 Z M206.027361,26.1895736 C203.99031,26.1895736 202.279187,25.490186 200.893992,24.0914108 C199.508797,22.6926356 198.8162,20.9611421 198.8162,18.8969302 C198.8162,16.8327182 199.508797,15.1012247 200.893992,13.7024495 C202.279187,12.3036743 203.99031,11.6042868 206.027361,11.6042868 C208.091573,11.6042868 209.816277,12.3036743 211.201472,13.7024495 C212.586666,15.1012247 213.279264,16.8327182 213.279264,18.8969302 C213.279264,20.9611421 212.586666,22.6926356 211.201472,24.0914108 C209.816277,25.490186 208.091573,26.1895736 206.027361,26.1895736 Z" id="marketfeed" fill="#FFFFFF"></path>
                        <path d="M224.442304,29.5303376 C225.202804,29.5303376 225.83429,29.2723111 226.336762,28.7562581 C226.839235,28.2402051 227.090471,27.6155094 227.090471,26.882171 C227.090471,26.1488325 226.839235,25.5241368 226.336762,25.0080838 C225.83429,24.4920309 225.202804,24.2340044 224.442304,24.2340044 C223.708966,24.2340044 223.08427,24.4920309 222.568217,25.0080838 C222.052164,25.5241368 221.794138,26.1488325 221.794138,26.882171 C221.794138,27.6155094 222.052164,28.2402051 222.568217,28.7562581 C223.08427,29.2723111 223.708966,29.5303376 224.442304,29.5303376 Z" id="." fill="#FFC400"></path>
                    </g>
                </g>
            </g>
        </g>
    </g>
</svg>