<?xml version="1.0" encoding="UTF-8"?>
<svg width="238px" height="60px" viewBox="0 0 238 60" version="1.1" xmlns="http://www.w3.org/2000/svg" xmlns:xlink="http://www.w3.org/1999/xlink">
    <title>logo_openstock_bg_dark@1x</title>
    <g id="Branding-Finals" stroke="none" stroke-width="1" fill="none" fill-rule="evenodd">
        <g id="Brand-Logo_openstock_typographic" transform="translate(-493.000000, -139.000000)">
            <g id="BG_-#170439-Copy-2" transform="translate(421.000000, 40.000000)">
                <g id="logo_openstock_bg_dark" transform="translate(72.000000, 99.000000)">
                    <rect id="logo_bleed" opacity="0" x="0" y="0" width="238" height="60"></rect>
                    <g id="openstock." transform="translate(20.000000, 12.000000)" fill-rule="nonzero">
                        <path d="M10.3989599,28.1244597 C13.3138199,28.1244597 15.7822599,27.1265797 17.8042798,25.1308198 C19.8262998,23.1087998 20.8373098,20.6403598 20.8373098,17.7254998 C20.8373098,14.8106399 19.8262998,12.3487649 17.8042798,10.3398749 C15.7822599,8.33098492 13.3138199,7.32653993 10.3989599,7.32653993 C7.48409993,7.32653993 5.02222495,8.33098492 3.01333497,10.3398749 C1.00444499,12.3487649 -6.02824451e-13,14.8106399 -6.02824451e-13,17.7254998 C-6.02824451e-13,20.6403598 1.00444499,23.1022348 3.01333497,25.1111248 C5.02222495,27.1200147 7.48409993,28.1244597 10.3989599,28.1244597 Z M10.3989599,23.1613198 C8.87587992,23.1613198 7.60226993,22.6492498 6.57812994,21.6251098 C5.58024995,20.6009698 5.08130995,19.3010998 5.08130995,17.7254998 C5.08130995,16.1498998 5.58681495,14.8500299 6.59782494,13.8258899 C7.60883493,12.8017499 8.87587992,12.2896799 10.3989599,12.2896799 C11.9220399,12.2896799 13.1956499,12.8017499 14.2197899,13.8258899 C15.2439299,14.8500299 15.7559999,16.1498998 15.7559999,17.7254998 C15.7559999,19.3010998 15.2439299,20.6009698 14.2197899,21.6251098 C13.1956499,22.6492498 11.9220399,23.1613198 10.3989599,23.1613198 Z M29.5031097,35.4509997 L29.5031097,25.2489898 C30.9999297,27.1659697 33.1269897,28.1244597 35.8842897,28.1244597 C38.5365496,28.1244597 40.8014746,27.1200147 42.6790646,25.1111248 C44.5566546,23.1022348 45.4954496,20.6403598 45.4954496,17.7254998 C45.4954496,14.8106399 44.5566546,12.3487649 42.6790646,10.3398749 C40.8014746,8.33098492 38.5365496,7.32653993 35.8842897,7.32653993 C33.1269897,7.32653993 30.9999297,8.28502992 29.5031097,10.2020099 L29.5031097,10.2020099 L29.5031097,7.87799993 L24.4217998,7.87799993 L24.4217998,35.4509997 L29.5031097,35.4509997 Z M34.9389297,23.2794898 C33.3633297,23.2794898 32.0634597,22.7674198 31.0393197,21.7432798 C30.0151797,20.6928798 29.5031097,19.3536198 29.5031097,17.7254998 C29.5031097,16.0973798 30.0151797,14.7646849 31.0393197,13.7274149 C32.0634597,12.6901449 33.3633297,12.1715099 34.9389297,12.1715099 C36.5145297,12.1715099 37.8209646,12.6901449 38.8582346,13.7274149 C39.8955046,14.7646849 40.4141396,16.0973798 40.4141396,17.7254998 C40.4141396,19.3536198 39.8955046,20.6863148 38.8582346,21.7235848 C37.8209646,22.7608548 36.5145297,23.2794898 34.9389297,23.2794898 Z M58.8486594,28.1244597 C62.6300994,28.1244597 65.4924394,26.7195497 67.4356794,23.9097298 L67.4356794,23.9097298 L63.3391194,21.5463298 C62.3412394,22.8593298 60.8706794,23.5158298 58.9274394,23.5158298 C55.9075395,23.5158298 54.0562095,22.2816098 53.3734495,19.8131698 L53.3734495,19.8131698 L68.2234794,19.8131698 C68.3547794,19.0778898 68.4204294,18.3819998 68.4204294,17.7254998 C68.4204294,14.7843799 67.4816344,12.3159399 65.6040444,10.3201799 C63.7264544,8.32441992 61.3433594,7.32653993 58.4547594,7.32653993 C55.4085995,7.32653993 52.9138995,8.31785492 50.9706595,10.3004849 C49.0274195,12.2831149 48.0557995,14.7581199 48.0557995,17.7254998 C48.0557995,20.7191398 49.0405495,23.2007098 51.0100495,25.1702098 C52.9795495,27.1397097 55.5924195,28.1244597 58.8486594,28.1244597 Z M63.3391194,15.8741699 L53.2946695,15.8741699 C53.5835295,14.6136899 54.1743795,13.6355049 55.0672195,12.9396149 C55.9600595,12.2437249 57.0892395,11.8957799 58.4547594,11.8957799 C59.6101994,11.8957799 60.6409044,12.2240299 61.5468744,12.8805299 C62.4528444,13.5370299 63.0502594,14.5349099 63.3391194,15.8741699 L63.3391194,15.8741699 Z M77.0468393,27.5729997 L77.0468393,16.9376998 C77.0468393,15.3095799 77.4407393,14.0884899 78.2285393,13.2744299 C79.0163393,12.4603699 80.0667392,12.0533399 81.3797392,12.0533399 C82.5614392,12.0533399 83.5067992,12.4012849 84.2158192,13.0971749 C84.9248392,13.7930649 85.2793492,14.7975099 85.2793492,16.1105098 L85.2793492,16.1105098 L85.2793492,27.5729997 L90.3606591,27.5729997 L90.3606591,15.4802699 C90.3606591,12.9330499 89.6582042,10.9372899 88.2532942,9.49298991 C86.8483842,8.04868992 85.0692692,7.32653993 82.9159492,7.32653993 C80.2374292,7.32653993 78.2810593,8.24563992 77.0468393,10.0838399 L77.0468393,10.0838399 L77.0468393,7.87799993 L71.9655293,7.87799993 L71.9655293,27.5729997 L77.0468393,27.5729997 Z M101.586809,28.0850697 C103.740129,28.0850697 105.506114,27.5467397 106.884764,26.4700798 C108.263414,25.3934198 108.952739,23.9622498 108.952739,22.1765698 C108.952739,20.8373098 108.571969,19.7409548 107.810429,18.8875048 C107.048889,18.0340548 106.129789,17.4300748 105.053129,17.0755648 C103.976469,16.7210548 102.899809,16.4059348 101.823149,16.1302048 C100.746489,15.8544749 99.8273891,15.4868349 99.0658491,15.0272849 C98.3043091,14.5677349 97.9235391,13.9571899 97.9235391,13.1956499 C97.9235391,12.3553299 98.2649191,11.7053949 98.9476791,11.2458449 C99.6304391,10.7862949 100.457629,10.5565199 101.429249,10.5565199 C103.530049,10.5565199 104.934959,11.3968399 105.643979,13.0774799 L105.643979,13.0774799 L108.519449,11.4624899 C107.889209,10.1757499 106.950414,9.17130491 105.703064,8.44915492 C104.455714,7.72700493 103.031109,7.36592993 101.429249,7.36592993 C99.4334891,7.36592993 97.7725441,7.91738993 96.4464141,9.02030991 C95.1202841,10.1232299 94.4572191,11.5281399 94.4572191,13.2350399 C94.4572191,14.5480399 94.8379891,15.6246999 95.5995291,16.4650198 C96.3610691,17.3053398 97.2801691,17.9093198 98.3568291,18.2769598 C99.4334891,18.6445998 100.510149,18.9662848 101.586809,19.2420148 C102.663469,19.5177448 103.582569,19.8853848 104.344109,20.3449348 C105.105649,20.8044848 105.486419,21.4150298 105.486419,22.1765698 C105.486419,23.0956698 105.118779,23.7718648 104.383499,24.2051548 C103.648219,24.6384448 102.715989,24.8550898 101.586809,24.8550898 C100.378849,24.8550898 99.3415791,24.5793598 98.4749991,24.0278998 C97.6084191,23.4764398 97.0175691,22.7280298 96.7024491,21.7826698 L96.7024491,21.7826698 L93.7481991,23.4764398 C94.3259191,24.8682198 95.2975391,25.9842698 96.6630591,26.8245897 C98.0285791,27.6649097 99.6698291,28.0850697 101.586809,28.0850697 Z M117.145859,26.8442847 C118.537639,27.7239947 120.730349,27.9668997 123.723989,27.5729997 L123.723989,27.5729997 L123.723989,24.5005798 C122.568549,24.5530998 121.596929,24.5727948 120.809129,24.5596648 C120.021329,24.5465348 119.437044,24.3364548 119.056274,23.9294248 C118.675504,23.5223948 118.485119,22.8330698 118.485119,21.8614498 L118.485119,21.8614498 L118.485119,11.1867599 L123.723989,11.1867599 L123.723989,7.87799993 L118.485119,7.87799993 L118.485119,2.36339998 L115.058189,3.38753997 L115.058189,7.87799993 L111.158579,7.87799993 L111.158579,11.1867599 L115.058189,11.1867599 L115.058189,21.8614498 C115.058189,24.3036298 115.754079,25.9645748 117.145859,26.8442847 Z M137.155979,28.0850697 C140.044579,28.0850697 142.499889,27.0871897 144.521909,25.0914298 C146.543929,23.0956698 147.554939,20.6403598 147.554939,17.7254998 C147.554939,14.8106399 146.543929,12.3553299 144.521909,10.3595699 C142.499889,8.36380992 140.044579,7.36592993 137.155979,7.36592993 C134.267379,7.36592993 131.818634,8.36380992 129.809744,10.3595699 C127.800854,12.3553299 126.796409,14.8106399 126.796409,17.7254998 C126.796409,20.6403598 127.800854,23.0956698 129.809744,25.0914298 C131.818634,27.0871897 134.267379,28.0850697 137.155979,28.0850697 Z M137.155979,24.7369198 C135.212739,24.7369198 133.571489,24.0672898 132.232229,22.7280298 C130.892969,21.3887698 130.223339,19.7212598 130.223339,17.7254998 C130.223339,15.7297399 130.892969,14.0622299 132.232229,12.7229699 C133.571489,11.3837099 135.212739,10.7140799 137.155979,10.7140799 C139.125479,10.7140799 140.779859,11.3837099 142.119119,12.7229699 C143.458379,14.0622299 144.128009,15.7297399 144.128009,17.7254998 C144.128009,19.7212598 143.458379,21.3887698 142.119119,22.7280298 C140.779859,24.0672898 139.125479,24.7369198 137.155979,24.7369198 Z M160.868758,28.0850697 C162.785738,28.0850697 164.532028,27.6189547 166.107628,26.6867247 C167.683228,25.7544948 168.891188,24.5137098 169.731508,22.9643698 L169.731508,22.9643698 L166.816648,21.2705998 C166.265188,22.3209998 165.464258,23.1547548 164.413858,23.7718648 C163.363458,24.3889748 162.181758,24.6975298 160.868758,24.6975298 C158.899258,24.6975298 157.251444,24.0278998 155.925314,22.6886398 C154.599184,21.3493798 153.936119,19.6949998 153.936119,17.7254998 C153.936119,15.7297399 154.599184,14.0622299 155.925314,12.7229699 C157.251444,11.3837099 158.899258,10.7140799 160.868758,10.7140799 C162.181758,10.7140799 163.356893,11.0291999 164.394163,11.6594399 C165.431433,12.2896799 166.199538,13.1299999 166.698478,14.1803999 L166.698478,14.1803999 L169.573948,12.5260199 C168.812408,10.9504199 167.656968,9.69650491 166.107628,8.76427492 C164.558288,7.83204493 162.811998,7.36592993 160.868758,7.36592993 C157.901379,7.36592993 155.432939,8.35724492 153.463439,10.3398749 C151.493939,12.3225049 150.509189,14.7843799 150.509189,17.7254998 C150.509189,20.6666198 151.493939,23.1284948 153.463439,25.1111248 C155.432939,27.0937547 157.901379,28.0850697 160.868758,28.0850697 Z M176.585368,27.5729997 L176.585368,18.2375698 L185.566288,27.5729997 L189.820408,27.5729997 L180.091078,17.4103798 L189.505288,7.87799993 L185.093608,7.87799993 L176.585368,16.5831898 L176.585368,7.17648156e-15 L173.158438,7.17648156e-15 L173.158438,27.5729997 L176.585368,27.5729997 Z" id="openstock" fill="#FFFFFF"></path>
                        <path d="M195.177448,28.0062897 C195.912728,28.0062897 196.523273,27.7568197 197.009083,27.2578797 C197.494893,26.7589397 197.737798,26.1549598 197.737798,25.4459398 C197.737798,24.7369198 197.494893,24.1329398 197.009083,23.6339998 C196.523273,23.1350598 195.912728,22.8855898 195.177448,22.8855898 C194.468428,22.8855898 193.864448,23.1350598 193.365508,23.6339998 C192.866568,24.1329398 192.617098,24.7369198 192.617098,25.4459398 C192.617098,26.1549598 192.866568,26.7589397 193.365508,27.2578797 C193.864448,27.7568197 194.468428,28.0062897 195.177448,28.0062897 Z" id="." fill="#5AD5FD"></path>
                    </g>
                </g>
            </g>
        </g>
    </g>
</svg>